<svg xmlns="http://www.w3.org/2000/svg" width="70" height="41" viewBox="0 0 70 41">
    <path fill="#FFF" fill-rule="evenodd" d="M69.826 8.285c-.166.252-.512.511-1.038.78a133.585 133.585 0 0 0-5.356 2.735 94.11 94.11 0 0 0-.327 1.95 83.292 83.292 0 0 1-.354 2.09 27.996 27.996 0 0 1 2.098-.955l.17-.065c.471-.18.857-.25 1.158-.212.3.038.572.224.817.556l-.004-.024c.256.294.452.59.588.887l.407.903-.028-.014c.105.215.17.395.193.539.045.272-.012.528-.171.768-.16.24-.382.464-.667.676-.285.21-.622.42-1.01.628-.39.209-.79.425-1.202.65l.024-.009a77.41 77.41 0 0 1-1.747 1.038c-.568.328-1.126.664-1.674 1.01-.078.37-.15.768-.218 1.193-.068.427-.094.79-.08 1.09.6-.347 1.22-.695 1.864-1.043a17.39 17.39 0 0 1 2.06-.94c.44-.168.807-.218 1.103-.153.296.066.55.263.759.591l-.004-.023c.258.31.503.667.734 1.072.231.406.381.817.45 1.233.06.369.014.66-.142.871-.154.212-.46.458-.916.734-1.004.622-2.035 1.258-3.094 1.909a554.839 554.839 0 0 0-3.07 1.9l.021-.033c-.437.285-.81.488-1.118.606a2.943 2.943 0 0 1-.963.214 2.15 2.15 0 0 1-.813-.136 5.675 5.675 0 0 1-.802-.383 18.23 18.23 0 0 1-.91-.56l.005.025a2.162 2.162 0 0 1-.667-.59c-.178-.237-.301-.565-.37-.981-.04-.24-.055-.49-.046-.749l1.605-17.62.26-.458c.624-.409 1.309-.845 2.053-1.308a74.333 74.333 0 0 1 4.847-2.757c.86-.448 1.717-.852 2.573-1.213l.122-.046c.52-.2.94-.248 1.26-.15.318.1.585.33.8.69l-.004-.023c.223.306.388.567.492.782.105.216.204.45.298.704l-.03-.015c.1.184.17.387.206.611.071.433.023.774-.142 1.025zm-15.11 9.297a.486.486 0 0 0-.055.113 2.328 2.328 0 0 1-.246.709c-.108.187-.354.347-.74.48l-.244.085a1.08 1.08 0 0 1-.295.054c-.517.069-.957.076-1.32.02a2.247 2.247 0 0 1-.925-.339 1.972 1.972 0 0 1-.622-.692c-.16-.29-.29-.637-.388-1.043a11.163 11.163 0 0 1-.077-.88 11.312 11.312 0 0 0-.067-.79 2.144 2.144 0 0 0-.103-.446c-.049-.133-.113-.216-.195-.251-.22.092-.48.413-.782.965a17.42 17.42 0 0 0-.896 1.97 32.437 32.437 0 0 0-.836 2.443 27.83 27.83 0 0 0-.62 2.416 21.04 21.04 0 0 0-.357 2.831c-.052.928-.035 1.723.05 2.385.055.436.138.787.25 1.055.112.268.261.41.448.422l.09-.03c.458-.159 1.128-.979 2.006-2.46.64-1.038 1.442-1.722 2.405-2.055a4.05 4.05 0 0 1 .64-.163c.22-.037.453-.058.7-.065.4-.012.7.06.898.219.198.16.316.39.355.69.027.211.01.448-.048.711-.06.265-.133.545-.218.84a11.332 11.332 0 0 1-2.052 3.912c-.923 1.135-2.095 1.949-3.517 2.44l-.311.108c-.089.03-.17.05-.247.062l.022-.008a8.604 8.604 0 0 1-1.849.239c-.556.003-1.06-.003-1.51-.02l.022-.008a2.013 2.013 0 0 1-.73-.09 3.013 3.013 0 0 1-.752-.34 3.481 3.481 0 0 1-.672-.544 2.846 2.846 0 0 1-.493-.678l.006.045a5.321 5.321 0 0 1-.575-1.32 10.472 10.472 0 0 1-.337-1.638c-.117-.916-.136-1.966-.055-3.148.082-1.181.257-2.408.528-3.679.27-1.27.628-2.532 1.071-3.783.443-1.253.964-2.41 1.563-3.473.6-1.062 1.274-1.982 2.025-2.76.752-.778 1.572-1.32 2.46-1.627l.223-.077c.089-.03.17-.051.247-.062l-.022.008a11.8 11.8 0 0 1 1.181-.197 8.974 8.974 0 0 1 1.2-.061 8 8 0 0 1 1.114.098c.355.057.663.143.925.257.67.271 1.125.632 1.369 1.081.243.45.403.983.482 1.6a15.56 15.56 0 0 1 .105 2.272 17.61 17.61 0 0 1-.071 1.165c-.036.381-.09.726-.159 1.032zM38.288 34.02c-.392.107-.758.192-1.096.254a3.005 3.005 0 0 1-1.068-.004l.023.017c-.444-.03-.752-.146-.927-.348-.176-.202-.293-.597-.355-1.187a44.118 44.118 0 0 1-.206-2.534l-.067-.436c-.946.41-1.873.82-2.783 1.227-.91.409-1.71.806-2.399 1.191-.201.48-.39.99-.566 1.53-.176.54-.358 1.044-.545 1.512a8.398 8.398 0 0 1-.574 1.192c-.195.325-.419.523-.671.592a1.71 1.71 0 0 1-.747.023l-.26-.065c-.23-.058-.463-.124-.694-.197a3.001 3.001 0 0 1-.624-.272 1.66 1.66 0 0 1-.46-.397 1.027 1.027 0 0 1-.204-.592 3.247 3.247 0 0 1 .023-.552c.024-.203.078-.445.162-.725.413-1.265.92-2.71 1.519-4.336a256.117 256.117 0 0 1 3.907-9.942c.67-1.608 1.293-3.02 1.866-4.237.217-.453.481-.856.797-1.207.315-.351.76-.606 1.335-.763.968-.265 1.782-.401 2.443-.407.662-.007 1.243.011 1.744.056l.385.008c.443.046.75.17.918.374.167.204.262.5.284.888.004.075.01.157.014.246.004.075.001.15-.009.23l-.001-.023a81.638 81.638 0 0 0-.108 3.598 294.45 294.45 0 0 0 .05 9.109c.034 1.604.07 3.128.107 4.572.027.478-.039.829-.197 1.054-.158.225-.496.409-1.016.55zM34.406 19.97c-.39.91-.803 1.875-1.236 2.896-.434 1.02-.87 2.074-1.307 3.163.43-.194.855-.37 1.273-.53.418-.16.843-.314 1.276-.463l-.015-2.564c-.005-.846-.002-1.681.009-2.502zm.385-15.537V4.42c-.287.73-.744 1.455-1.371 2.178a19.612 19.612 0 0 1-2.244 2.17 21.676 21.676 0 0 0 1.722 1.956c.196.198.38.373.553.526v-.015c.18.15.27.33.27.538a.81.81 0 0 1-.129.424 1.816 1.816 0 0 1-.307.38c-.119.114-.238.212-.357.296-.119.084-.21.139-.277.166l.013-.017-.282.154a1.417 1.417 0 0 1-.8.15c-.18-.017-.37-.08-.566-.188a11.205 11.205 0 0 1-1.186-1.007c-.217-.211-.433-.435-.646-.671-.213-.236-.414-.48-.602-.732l-.406 1.67a94.627 94.627 0 0 0-.381 1.62 1.353 1.353 0 0 1-.203.48.657.657 0 0 1-.375.243.883.883 0 0 1-.308.025 29.027 29.027 0 0 0-.565-.032 1.53 1.53 0 0 1-.48-.091.653.653 0 0 1-.331-.273c-.083-.128-.124-.321-.124-.576 0-.133.012-.283.037-.45a739.895 739.895 0 0 1 .646-3.515c.143-.761.3-1.553.467-2.374.168-.82.34-1.58.517-2.28.175-.7.354-1.302.535-1.804.18-.502.351-.818.516-.947.303-.242.619-.485.946-.73.328-.244.658-.47.99-.677.332-.208.66-.393.984-.556.324-.162.634-.283.928-.363a2.61 2.61 0 0 1 .99-.082c.316.039.589.179.818.42.14.15.28.32.424.502a3.768 3.768 0 0 1 .683 1.413c.073.293.11.618.11.978 0 .208-.018.4-.055.575a3.749 3.749 0 0 1-.154.53zM32.37 3.298c-.041-.112-.226-.123-.553-.035-.189.05-.402.133-.64.25a4.323 4.323 0 0 0-.75.477c-.115.362-.227.745-.338 1.148l-.35 1.279v-.014l-.05.184c-.016.06-.033.126-.049.196.418-.32.797-.653 1.138-1 .34-.347.627-.68.86-.998.234-.318.414-.607.541-.868.127-.261.19-.463.19-.604v-.015zm-5.947 1.227c-.096.127-.275.245-.539.352A62.433 62.433 0 0 0 23.2 5.972c-.096.33-.196.686-.3 1.068-.103.383-.212.765-.323 1.145.343-.138.69-.259 1.042-.364l.084-.022c.232-.062.415-.07.55-.023.136.047.249.173.336.38v-.014c.096.186.164.368.205.546l.119.542-.012-.011c.032.13.048.236.048.319a.672.672 0 0 1-.138.417c-.091.122-.212.23-.36.325-.147.095-.319.185-.514.27-.196.084-.398.173-.605.266l.011-.004c-.303.156-.598.302-.886.44-.288.137-.571.28-.85.428-.064.202-.128.42-.192.653a3.642 3.642 0 0 0-.12.606c.303-.146.617-.29.94-.433a7.156 7.156 0 0 1 1.024-.358c.216-.058.39-.056.522.006.132.06.233.192.305.394v-.013c.096.194.182.416.258.663.075.246.114.49.114.729 0 .212-.044.372-.132.478-.088.107-.248.218-.48.336-.51.267-1.036.54-1.575.818-.538.278-1.06.55-1.564.814l.013-.017a2.614 2.614 0 0 1-.563.247c-.176.048-.33.062-.462.041a.881.881 0 0 1-.365-.143 2.609 2.609 0 0 1-.342-.281 9.058 9.058 0 0 1-.377-.39v.014a1.175 1.175 0 0 1-.263-.385 1.493 1.493 0 0 1-.096-.582c0-.138.011-.28.036-.425l2.084-9.766.156-.235c.32-.178.669-.367 1.048-.566a31.085 31.085 0 0 1 2.45-1.148c.432-.18.86-.338 1.282-.47l.06-.016c.256-.069.453-.061.593.02.14.082.246.234.318.454v-.013c.08.19.136.35.168.48.03.13.06.27.084.42l-.013-.011c.033.111.048.232.048.36 0 .249-.048.437-.144.564zm-8.363 5.899c-.143.17-.289.34-.437.51-.147.17-.308.345-.482.523.235.164.423.408.568.732.143.323.215.66.215 1.009 0 .418-.077.802-.232 1.15-.156.347-.384.709-.686 1.086l.01-.002a6.997 6.997 0 0 1-.754.871 12.76 12.76 0 0 1-.92.823 16.895 16.895 0 0 1-1.89 1.333l.012-.003c-.272.178-.5.292-.68.34a.827.827 0 0 1-.376.022 1.252 1.252 0 0 1-.374-.148 3.024 3.024 0 0 1-.653-.276 1.805 1.805 0 0 1-.585-.557l.012.01a2.949 2.949 0 0 1-.25-.371c-.06-.11-.09-.266-.09-.467 0-.087.005-.174.017-.26a41.421 41.421 0 0 1 .397-2.333c.148-.742.296-1.503.448-2.281.151-.779.297-1.557.437-2.337.14-.78.251-1.517.335-2.211.272-.231.576-.461.914-.692.336-.23.682-.445 1.038-.646.356-.2.717-.38 1.084-.54.366-.16.717-.284 1.05-.373a4.04 4.04 0 0 1 1.203-.153c.37.013.658.12.862.318.121.125.239.26.353.409.113.149.215.313.306.494.09.18.162.38.215.597.053.217.08.452.08.706 0 .471-.112.942-.335 1.412a6.675 6.675 0 0 1-.812 1.305zm-4.528 3.483c-.075.325-.15.634-.222.924-.071.29-.146.584-.22.884.317-.2.606-.405.867-.62.262-.214.485-.42.67-.618.186-.199.331-.386.437-.563.106-.177.159-.331.159-.462-.015-.065-.076-.106-.182-.121-.106-.016-.257.004-.453.056-.288.078-.64.251-1.056.52zm2.781-5.868a2.996 2.996 0 0 0-.647.279c-.25.137-.523.32-.817.547-.076.257-.15.522-.222.8-.072.276-.146.564-.22.864a4.18 4.18 0 0 0-.092.313 9.31 9.31 0 0 0 1.742-1.634c.209-.257.367-.487.477-.691.11-.205.165-.364.165-.477 0-.07-.13-.07-.386 0zm-5.055.931c-.25 1.273-.503 2.465-.756 3.577a39.562 39.562 0 0 1-.806 3.024c-.283.904-.59 1.692-.921 2.367-.332.675-.695 1.21-1.092 1.605a4.012 4.012 0 0 1-.713.51 3.472 3.472 0 0 1-.777.311c-.729.196-1.339.214-1.832.053-.493-.16-.857-.544-1.092-1.152-.14-.386-.21-.877-.21-1.471 0-.543.053-1.154.16-1.831.106-.68.246-1.38.419-2.106.173-.725.365-1.453.574-2.185.21-.731.421-1.426.635-2.086.073-.223.156-.393.248-.506a.679.679 0 0 1 .358-.23 1.42 1.42 0 0 1 .59-.02c.218.036.422.106.613.212s.354.242.486.41a.918.918 0 0 1 .198.584c0 .161-.033.344-.099.548l.011-.016a64.973 64.973 0 0 0-1.065 3.718 28.702 28.702 0 0 0-.408 1.841c-.107.576-.16 1.051-.16 1.424 0 .196.015.348.044.46.03.11.081.156.155.136.162-.043.332-.244.513-.602.18-.358.36-.816.54-1.375.18-.557.36-1.18.54-1.87.181-.689.353-1.386.514-2.092.162-.705.311-1.386.447-2.042.136-.656.252-1.23.347-1.723l-.01.028c.036-.247.112-.433.226-.557a.854.854 0 0 1 .414-.251c.11-.03.23-.039.358-.026.129.012.262.033.397.064.136.032.273.071.409.12.136.048.263.095.38.14.162.075.273.158.332.248s.087.208.087.351a1.499 1.499 0 0 1-.055.41zM3.313 25.872c.308-.597.658-1.182 1.05-1.756a18.42 18.42 0 0 1 1.27-1.643c.452-.522.895-.966 1.327-1.332l-.036.028c.223-.24.516-.462.88-.668.363-.205.759-.351 1.189-.438.293-.06.621-.074.98-.043.361.032.727.1 1.099.205.371.107.727.25 1.067.43.34.182.631.388.873.617.374.355.607.745.7 1.171.091.427.135.835.13 1.225l-.007.523a27.68 27.68 0 0 1-.227 1.234c-.098.479-.214.964-.35 1.457-.134.493-.278.978-.43 1.453-.155.476-.306.889-.458 1.24a3.419 3.419 0 0 1-.411.635.894.894 0 0 1-.518.303c-.171.035-.373.02-.604-.045l.018.018c-1.524-.345-2.278-1.116-2.263-2.315.002-.14.039-.36.11-.659.07-.298.152-.624.242-.977.09-.351.178-.706.262-1.063.083-.358.14-.658.167-.9-.012.017-.025.027-.037.029l-.018.025c-.222.17-.47.422-.743.755a9.239 9.239 0 0 0-.777 1.105 7.48 7.48 0 0 0-.612 1.272c-.166.442-.25.86-.255 1.25-.006.432.106.778.335 1.036v-.02c.434.454.924.852 1.47 1.193.545.34 1.057.687 1.536 1.034.479.348.883.728 1.214 1.141.33.412.493.918.484 1.517-.005.405-.102.835-.291 1.29v-.02c-.152.392-.357.819-.613 1.28a6.744 6.744 0 0 1-1.008 1.351 7.694 7.694 0 0 1-1.502 1.21c-.586.37-1.276.642-2.073.818l-.24.047c-1.005.204-1.958.136-2.858-.203-.9-.339-1.778-1.026-2.633-2.062-.506-.538-.757-1.002-.752-1.392v-.041c.031-.451.232-.833.602-1.144l.038-.028c.432-.31.893-.515 1.383-.614.32-.064.62-.08.9-.047.28.034.53.126.748.277.643.411 1.226.7 1.75.865.523.165.975.21 1.355.132.281-.057.504-.17.664-.343-.022-.162-.208-.374-.56-.637a23.027 23.027 0 0 0-1.236-.855 92.68 92.68 0 0 1-1.29-.864 6.159 6.159 0 0 1-1.133-.99 4.285 4.285 0 0 1-.79-1.3c-.195-.496-.29-1.078-.28-1.747.009-.697.172-1.487.49-2.372l-.019.024a9.749 9.749 0 0 1 .691-1.672zm9.605 8.807a99.8 99.8 0 0 0 .61-2.997c.21-1.116.426-2.272.643-3.47.219-1.196.434-2.305.643-3.327a38.78 38.78 0 0 1 .614-2.599c.2-.71.382-1.132.549-1.267a43.254 43.254 0 0 1 1.584-1.152c.568-.397 1.157-.77 1.762-1.124.607-.353 1.21-.663 1.809-.928a8.367 8.367 0 0 1 1.718-.564c.534-.108 1.021-.124 1.465-.048.442.076.825.284 1.15.62.2.22.41.476.628.77.217.295.415.623.594.982.18.36.327.756.441 1.186.115.43.169.898.163 1.404a4.766 4.766 0 0 1-.532 2.15c-.346.667-.75 1.322-1.214 1.963a17.358 17.358 0 0 1-1.591 1.802c-.611.606-1.27 1.19-1.982 1.752a31.351 31.351 0 0 1-2.225 1.606c-.774.51-1.544.971-2.31 1.386-.226.91-.45 1.803-.671 2.675-.22.873-.426 1.739-.614 2.599a2.962 2.962 0 0 1-.37.723c-.13.17-.327.282-.594.336-.166.034-.33.046-.495.036-.303-.055-.607-.108-.91-.162a3.12 3.12 0 0 1-.805-.248 1.44 1.44 0 0 1-.564-.469c-.143-.201-.212-.483-.207-.844.002-.217.058-.51.164-.876.17-.394.352-1.032.547-1.915zm7.843-8.805c.525-.487.965-.959 1.32-1.412.353-.453.626-.876.815-1.267.188-.391.285-.724.288-.999 0-.028.008-.062.02-.101.014-.038.004-.073-.026-.102-.032-.03-.101-.044-.21-.044-.107 0-.274.023-.504.069-.292.06-.635.172-1.03.339a7.118 7.118 0 0 0-1.226.68c-.198.645-.4 1.316-.606 2.013-.206.697-.42 1.436-.647 2.216.677-.44 1.28-.903 1.806-1.392z"/>
</svg>
