<?xml version="1.0" encoding="utf-8"?>
<!-- Generator: Adobe Illustrator 15.1.0, SVG Export Plug-In . SVG Version: 6.00 Build 0)  -->
<!DOCTYPE svg PUBLIC "-//W3C//DTD SVG 1.1//EN" "http://www.w3.org/Graphics/SVG/1.1/DTD/svg11.dtd">
<svg version="1.1" id="Layer_1" xmlns="http://www.w3.org/2000/svg" xmlns:xlink="http://www.w3.org/1999/xlink" x="0px" y="0px"
	 width="258px" height="152px" viewBox="0 0 258 152" enable-background="new 0 0 258 152" xml:space="preserve">
<polygon points="0,0 0,129.3 119,150.5 238,129.3 238,0 "/>
<polygon fill="#6F7072" points="227.6,0 227.6,119.499 119.101,138.899 10.6,119.499 10.6,0 8.799,0 8.799,119.499 8.799,121.1 
	10.3,121.3 118.8,140.7 119.101,140.7 119.4,140.7 227.9,121.3 229.4,121.1 229.4,119.499 229.4,0 "/>
<g>
	<defs>
		<rect id="SVGID_1_" width="258" height="152"/>
	</defs>
	<clipPath id="SVGID_2_">
		<use xlink:href="#SVGID_1_"  overflow="visible"/>
	</clipPath>
	<path clip-path="url(#SVGID_2_)" fill="#727272" d="M40.42,0h-0.713c1.426,12.168,9.088,23.913,9.189,24.012l0.599-0.4
		C49.396,23.513,41.876,12.032,40.42,0"/>
	<path clip-path="url(#SVGID_2_)" fill="#494949" d="M37.914,0h-0.709c1.229,13.76,9.691,25.113,9.791,25.212l0.5-0.4
		C47.396,24.613,39.076,13.515,37.914,0"/>
</g>
<g>
	<defs>
		<rect id="SVGID_3_" width="258" height="152"/>
	</defs>
	<clipPath id="SVGID_4_">
		<use xlink:href="#SVGID_3_"  overflow="visible"/>
	</clipPath>
	<path clip-path="url(#SVGID_4_)" d="M90.3,67.4c0,0,49.899,73.1,103.601-1.3l14.6,5.2C208.5,71.3,149.101,142.1,90.3,67.4"/>
	<path clip-path="url(#SVGID_4_)" fill="#FFFFFF" d="M193.8,65.601l-0.199,0.2c-15.901,22.1-33.101,33.3-51,33.3
		c-9.701,0-19.5-3.3-29.201-9.8c-7.799-5.5-15.5-12.9-22.799-22.2L90,67.601c0.101,0.099,9,13,22.9,22.3c11.4,8,23.5,12,36,12
		c33.8,0,59.5-30.201,59.8-30.5L209,71L193.8,65.601z M149,101.301c-6,0-11.899-1-17.7-2.9c3.801,1,7.6,1.5,11.399,1.5
		c18.101,0,35.401-11.201,51.401-33.4l13.799,5C204.601,75.101,180.3,101.301,149,101.301"/>
</g>
<g>
	<defs>
		<rect id="SVGID_5_" width="258" height="152"/>
	</defs>
	<clipPath id="SVGID_6_">
		<use xlink:href="#SVGID_5_"  overflow="visible"/>
	</clipPath>
	<path clip-path="url(#SVGID_6_)" fill="#494949" d="M86.421,13.899c0.828,0.016,1.489,0.565,1.477,1.228
		c-0.013,0.663-0.694,1.187-1.523,1.171c-0.828-0.015-1.489-0.565-1.476-1.227C84.911,14.408,85.592,13.883,86.421,13.899"/>
	<path clip-path="url(#SVGID_6_)" fill="#494949" d="M99.3,5.6c1.381,0,2.5,1.119,2.5,2.5c0,1.38-1.119,2.5-2.5,2.5
		c-1.38,0-2.5-1.12-2.5-2.5C96.8,6.719,97.919,5.6,99.3,5.6"/>
	<path clip-path="url(#SVGID_6_)" fill="#494949" d="M99.9,18.8c0,0.8-0.7,1.5-1.601,1.5c-0.799,0-1.5-0.7-1.5-1.6
		c0-0.8,0.701-1.5,1.601-1.5C99.299,17.2,99.9,17.9,99.9,18.8"/>
	<path clip-path="url(#SVGID_6_)" fill="#494949" d="M95.8,24.2c0,1-0.899,1.9-1.899,1.8c-1,0-1.901-0.9-1.8-1.9
		c0-1,0.899-1.9,1.899-1.8C95,22.3,95.8,23.2,95.8,24.2"/>
	<path clip-path="url(#SVGID_6_)" fill="#494949" d="M85.8,25.9c0.332,0,0.601,0.269,0.601,0.6s-0.269,0.6-0.601,0.6
		c-0.331,0-0.6-0.269-0.6-0.6S85.469,25.9,85.8,25.9"/>
	<path clip-path="url(#SVGID_6_)" fill="#494949" d="M144.3,5.8c1.216,0,2.199,0.985,2.199,2.2c0,1.215-0.983,2.2-2.199,2.2
		c-1.215,0-2.199-0.985-2.199-2.2C142.101,6.785,143.085,5.8,144.3,5.8"/>
	<path clip-path="url(#SVGID_6_)" fill="#494949" d="M150.7,22.1c0,1.1-0.9,2-2,2c-1.101,0-2-0.9-2-2s0.899-2,2-2
		C149.9,20,150.8,20.9,150.7,22.1"/>
	<path clip-path="url(#SVGID_6_)" fill="#494949" d="M157.2,35.9c0,2.3-1.9,4.1-4.2,4c-2.3,0-4.1-1.9-4-4.2c0-2.3,1.9-4.1,4.2-4
		C155.5,31.8,157.3,33.6,157.2,35.9"/>
	<path clip-path="url(#SVGID_6_)" fill="#494949" d="M143.3,47c1.381,0,2.5,1.119,2.5,2.5s-1.119,2.5-2.5,2.5
		c-1.38,0-2.5-1.119-2.5-2.5S141.92,47,143.3,47"/>
	<path clip-path="url(#SVGID_6_)" fill="#494949" d="M131.2,57.8c0.772,0,1.399,0.627,1.399,1.4s-0.627,1.4-1.399,1.4
		c-0.773,0-1.4-0.627-1.4-1.4S130.427,57.8,131.2,57.8"/>
	<path clip-path="url(#SVGID_6_)" fill="#494949" d="M98.5,68.3c0,0.8-0.7,1.4-1.399,1.4C96.3,69.7,95.7,69,95.7,68.3
		c0-0.8,0.7-1.4,1.401-1.4C97.9,66.9,98.5,67.5,98.5,68.3"/>
	<path clip-path="url(#SVGID_6_)" fill="#494949" d="M86.3,78c0,1.199-1,2.101-2.199,2.101c-1.2,0-2.101-1-2.101-2.201
		c0-1.2,1-2.1,2.2-2.1C85.4,75.8,86.3,76.801,86.3,78"/>
	<path clip-path="url(#SVGID_6_)" fill="#494949" d="M104.8,102.5c0,2.301-1.899,4.101-4.199,4c-2.301,0-4.101-1.899-4-4.199
		c0-2.301,1.899-4.102,4.199-4C103,98.301,104.9,100.199,104.8,102.5"/>
	<path clip-path="url(#SVGID_6_)" fill="#494949" d="M120.7,98.9c1.933,0,3.5,1.566,3.5,3.5c0,1.933-1.567,3.5-3.5,3.5
		c-1.933,0-3.5-1.567-3.5-3.5C117.2,100.467,118.767,98.9,120.7,98.9"/>
	<path clip-path="url(#SVGID_6_)" fill="#494949" d="M118.7,87.2c0,2.101-1.8,3.8-4,3.8c-2.1,0-3.9-1.8-3.8-4c0-2.101,1.8-3.9,4-3.8
		C117,83.2,118.7,85,118.7,87.2"/>
	<path clip-path="url(#SVGID_6_)" fill="#494949" d="M104.5,89.7c0,0.601-0.5,1.101-1.1,1c-0.6,0-1.1-0.5-1-1.101
		c0-0.6,0.5-1.1,1.1-1C104,88.6,104.5,89.1,104.5,89.7"/>
	<path clip-path="url(#SVGID_6_)" fill="#494949" d="M138.5,75.7c1.215,0,2.199,0.985,2.199,2.2c0,1.216-0.984,2.2-2.199,2.2
		s-2.2-0.984-2.2-2.2C136.3,76.685,137.285,75.7,138.5,75.7"/>
	<path clip-path="url(#SVGID_6_)" fill="#494949" d="M152.4,74.1c0,0.8-0.7,1.5-1.602,1.5c-0.799,0-1.5-0.7-1.5-1.6
		c0-0.8,0.701-1.5,1.602-1.5C151.7,72.6,152.4,73.3,152.4,74.1"/>
	<path clip-path="url(#SVGID_6_)" fill="#494949" d="M176.5,56.9c0,1.1-0.899,2-2.101,2c-1.1,0-2-0.9-2-2.1c0-1.1,0.9-2,2.101-2
		C175.601,54.8,176.5,55.8,176.5,56.9"/>
	<path clip-path="url(#SVGID_6_)" fill="#494949" d="M186.4,38.7c1.381,0,2.5,1.12,2.5,2.5c0,1.381-1.119,2.5-2.5,2.5
		s-2.5-1.119-2.5-2.5C183.9,39.82,185.02,38.7,186.4,38.7"/>
	<path clip-path="url(#SVGID_6_)" fill="#494949" d="M179.2,27.1c0,0.7-0.601,1.3-1.3,1.3c-0.7,0-1.301-0.6-1.301-1.3
		c0-0.7,0.601-1.3,1.301-1.3C178.6,25.7,179.2,26.3,179.2,27.1"/>
	<path clip-path="url(#SVGID_6_)" fill="#494949" d="M172.601,15c1.104,0,2,0.896,2,2s-0.896,2-2,2c-1.104,0-2-0.896-2-2
		S171.496,15,172.601,15"/>
	<path clip-path="url(#SVGID_6_)" fill="#494949" d="M170.101,4.6c0,0.8-0.7,1.4-1.4,1.4c-0.8,0-1.401-0.7-1.401-1.4
		c0-0.8,0.7-1.4,1.401-1.4C169.499,3.2,170.2,3.9,170.101,4.6"/>
	<path clip-path="url(#SVGID_6_)" fill="#494949" d="M120.5,36.8c0,1.1-0.899,2-2,2c-1.1,0-2-0.9-2-2s0.9-2,2-2
		C119.7,34.8,120.601,35.7,120.5,36.8"/>
	<path clip-path="url(#SVGID_6_)" fill="#494949" d="M59.1,99.801c0,1-0.9,1.898-1.9,1.8c-1,0-1.901-0.901-1.8-1.901
		c0-1,0.899-1.898,1.899-1.799C58.299,97.9,59.1,98.801,59.1,99.801"/>
	<path clip-path="url(#SVGID_6_)" fill="#494949" d="M70,106.101c0,1.3-1.1,2.3-2.399,2.3c-1.301,0-2.301-1.101-2.301-2.401
		c0-1.299,1.1-2.299,2.4-2.299C69,103.8,70,104.8,70,106.101"/>
	<path clip-path="url(#SVGID_6_)" fill="#494949" d="M82.8,109.5c1.934,0,3.5,1.566,3.5,3.5s-1.566,3.5-3.5,3.5
		c-1.933,0-3.5-1.566-3.5-3.5S80.867,109.5,82.8,109.5"/>
	<path clip-path="url(#SVGID_6_)" fill="#494949" d="M95.1,116.7c2.43,0,4.399,1.97,4.399,4.399c0,2.431-1.969,4.4-4.399,4.4
		c-2.431,0-4.4-1.97-4.4-4.4C90.7,118.67,92.669,116.7,95.1,116.7"/>
	<path clip-path="url(#SVGID_6_)" fill="#494949" d="M109.3,121c1.326,0,2.4,1.074,2.4,2.399c0,1.326-1.074,2.401-2.4,2.401
		c-1.325,0-2.399-1.075-2.399-2.401C106.9,122.074,107.975,121,109.3,121"/>
	<path clip-path="url(#SVGID_6_)" fill="#494949" d="M134.8,121.101c0,1.398-1.199,2.5-2.5,2.398c-1.399,0-2.5-1.199-2.399-2.5
		c0-1.398,1.2-2.398,2.5-2.398C133.699,118.601,134.8,119.8,134.8,121.101"/>
	<path clip-path="url(#SVGID_6_)" fill="#494949" d="M146.3,119.9c0,2-1.699,3.6-3.699,3.6s-3.602-1.7-3.602-3.7s1.7-3.6,3.7-3.6
		C144.8,116.2,146.4,117.9,146.3,119.9"/>
	<path clip-path="url(#SVGID_6_)" fill="#494949" d="M152.5,111.9c0.994,0,1.8,0.806,1.8,1.8s-0.806,1.8-1.8,1.8
		s-1.801-0.806-1.801-1.8S151.506,111.9,152.5,111.9"/>
	<path clip-path="url(#SVGID_6_)" fill="#494949" d="M171,107.601c1.934,0,3.5,1.565,3.5,3.5c0,1.933-1.566,3.5-3.5,3.5
		s-3.5-1.567-3.5-3.5C167.5,109.166,169.066,107.601,171,107.601"/>
	<path clip-path="url(#SVGID_6_)" fill="#494949" d="M179.3,105.4c0,0.3-0.199,0.5-0.5,0.5s-0.5-0.2-0.5-0.5
		c0-0.301,0.199-0.5,0.5-0.5S179.4,105.1,179.3,105.4"/>
	<path clip-path="url(#SVGID_6_)" fill="#494949" d="M171.2,88.601c0,0.699-0.601,1.3-1.3,1.3c-0.7,0-1.301-0.601-1.301-1.3
		c0-0.7,0.601-1.301,1.301-1.301C170.6,87.3,171.2,87.9,171.2,88.601"/>
	<path clip-path="url(#SVGID_6_)" fill="#494949" d="M156.601,87.7c0,1.399,1.1,2.601,2.5,2.601c1.398,0,2.6-1.101,2.6-2.5
		c0-1.401-1.1-2.601-2.5-2.601C157.799,85.2,156.601,86.301,156.601,87.7"/>
	<path clip-path="url(#SVGID_6_)" fill="#494949" d="M154.3,91.101c0.772,0,1.399,0.627,1.399,1.398
		c0,0.774-0.627,1.401-1.399,1.401s-1.399-0.627-1.399-1.401C152.9,91.728,153.527,91.101,154.3,91.101"/>
	<path clip-path="url(#SVGID_6_)" fill="#494949" d="M138.9,91.101v1.1C138.9,92.2,138.799,91.7,138.9,91.101v-1.102V91.101z"/>
	<path clip-path="url(#SVGID_6_)" fill="#494949" d="M138.601,90.301c0.884,0,1.6,0.716,1.6,1.6c0,0.883-0.716,1.599-1.6,1.599
		c-0.885,0-1.602-0.716-1.602-1.599C136.999,91.017,137.716,90.301,138.601,90.301"/>
	<path clip-path="url(#SVGID_6_)" fill="#494949" d="M160.2,64c0,1.1-1,2-2.101,2c-1.1,0-2-1-2-2.1c0-1.1,1-2,2.101-2
		C159.3,61.9,160.2,62.8,160.2,64"/>
	<path clip-path="url(#SVGID_6_)" fill="#494949" d="M161.8,64.8c0,0.4-0.399,0.8-0.801,0.8c-0.398,0-0.8-0.4-0.8-0.8
		s0.401-0.8,0.8-0.8C161.499,64,161.8,64.4,161.8,64.8"/>
	<path clip-path="url(#SVGID_6_)" fill="#494949" d="M164.101,66c0,0.6-0.5,1.1-1.2,1.1c-0.602,0-1.102-0.5-1.102-1.2
		c0-0.6,0.5-1.1,1.2-1.1C163.601,64.8,164.101,65.4,164.101,66"/>
</g>
<g>
	<defs>
		<rect id="SVGID_7_" width="258" height="152"/>
	</defs>
	<clipPath id="SVGID_8_">
		<use xlink:href="#SVGID_7_"  overflow="visible"/>
	</clipPath>
	<path clip-path="url(#SVGID_8_)" d="M195.4,30.1c-0.102-0.7-0.301-1.3-0.5-1.9c0-0.1-0.102-0.2-0.102-0.3
		c-0.299-0.8-0.599-1.5-0.898-2.1c-0.4-0.8-0.9-1.6-1.602-2.6c0-0.1-0.099-0.1-0.099-0.2c-1.3-1.8-2.8-2.6-3.901-3
		c-0.699-0.2-1.398-0.3-2.099-0.3c-1.2,0-2.401,0.3-3.7,0.8l-0.3,0.1c0,0-0.101,0-0.101,0.1c-2.301,1-4.6,2-6.801,3.2
		c-2.199,1.1-4.398,2.3-6.5,3.5c-2.099,1.2-4.099,2.4-6,3.6c-1.898,1.2-3.699,2.3-5.299,3.3c-0.5,0.3-1,0.8-1.3,1.4l-0.7,1.2
		c-0.3,0.5-0.5,1.1-0.5,1.6l-4.1,44.499V83.2c0,0.9,0,1.799,0.199,2.7c0.301,1.7,0.801,3.099,1.699,4.2
		c0.801,1,1.801,1.898,2.901,2.6c0.099,0.1,0.2,0.1,0.399,0.2c0.699,0.399,1.301,0.8,1.9,1.2c0.9,0.5,1.799,0.898,2.6,1.199
		c1.101,0.4,2.199,0.601,3.301,0.601h0.199c1.199,0,2.4-0.3,3.801-0.8c0.898-0.301,1.898-0.801,3-1.5c0.199-0.102,0.3-0.2,0.5-0.301
		c2.5-1.5,5.1-3.1,7.8-4.801c2.7-1.599,5.3-3.299,7.8-4.799c1.6-1,2.7-1.9,3.4-2.9c0.699-1,1.5-2.699,1.1-5.2
		c-0.3-1.5-0.8-3-1.6-4.4c-0.7-1.2-1.5-2.3-2.301-3.3l-0.1-0.1c-1-1.4-2.201-2.1-3.201-2.4c1.102-0.6,2.102-1.2,3-1.8
		c1.102-0.8,2-1.7,2.602-2.7c1-1.5,1.3-3.1,1.1-4.8c-0.1-0.5-0.3-1.1-0.5-1.7c-0.1-0.2-0.1-0.4-0.201-0.6
		c-0.299-0.8-0.699-1.5-1-2.3c-0.5-1.1-1.199-2.2-2.099-3.2c-0.101-0.1-0.2-0.2-0.2-0.3c-1.5-1.7-3.201-2.3-4.3-2.4
		c-0.3,0-0.601-0.1-0.901-0.1c-1,0-2,0.2-3.099,0.5c0.099-0.3,0.099-0.7,0.2-1c1.8-1,3.6-1.9,5.3-2.7c2.2-1.1,4.3-2.2,6.399-3.2
		h0.101c2-1,3.3-2.1,4.099-3.3C195.4,34,195.799,32.2,195.4,30.1"/>
	<path clip-path="url(#SVGID_8_)" d="M157.101,45c-0.302-2-0.802-3.9-1.7-5.4c-1.102-2-2.901-3.5-5.401-4.5c-1-0.4-2-0.7-3.2-0.9
		c-1.099-0.2-2.198-0.3-3.398-0.3h-0.5c-1,0-2.102,0.1-3.102,0.2c-1.099,0.1-2.099,0.3-3.099,0.5c-0.401,0.1-0.901,0.2-1.3,0.3
		l-0.602,0.2c-2.8,1-5.5,2.7-7.799,5.1c-2.099,2.2-4.099,4.8-5.7,7.8c-1.599,2.9-3,6-4.199,9.4c-1.2,3.3-2.101,6.7-2.9,10.1
		c-0.701,3.4-1.201,6.7-1.401,9.8c-0.199,3.2-0.199,6.2,0.2,8.7c0.201,1.7,0.5,3.3,1,4.8c0.5,1.601,1.101,3.101,1.901,4.3
		c0.099,0.101,0.2,0.301,0.3,0.4c0.4,0.7,0.9,1.3,1.5,1.9c0.7,0.8,1.599,1.399,2.5,2c0.9,0.6,1.9,1,2.9,1.3
		c0.899,0.3,1.8,0.399,2.699,0.399h0.101c1,0,2.099,0.101,3.3,0.101h0.7c1.599,0,3.398-0.2,5.2-0.601c0.398-0.1,0.898-0.199,1.3-0.3
		h0.099l0.701-0.2c4.299-1.5,7.9-4,10.7-7.399c2.7-3.3,4.599-7,5.898-11.2l0.602-2.4c0.3-1.1,0.3-2.199,0.2-3.2
		c-0.2-1.8-1.102-3.3-2.4-4.4c-1.201-1-2.701-1.4-4.6-1.4h-0.302c-0.8,0-1.599,0.1-2.3,0.2c-0.799,0.1-1.5,0.3-2.299,0.6
		c-3.201,1.1-5.901,3.3-8,6.6v-0.899c0.099-2.201,0.4-4.4,0.799-6.601c0.401-1.7,0.8-3.6,1.5-5.7c0.401-1.4,0.8-2.7,1.3-3.9
		c0.7,1.2,1.602,2.1,2.7,2.9c1.102,0.8,2.5,1.3,4,1.5c0.602,0.1,1.3,0.1,1.901,0.1c0.7,0,1.5-0.1,2.398-0.2
		c0.602,0,1.102-0.2,1.7-0.3l0.3-0.1l0.401-0.1c1.9-0.7,3.299-1.6,4-3c0.4-0.7-0.3-1.5,0-2.5c0.099-0.2,0.2-0.5,0.2-0.7
		c0.2-0.9,0.398-2,0.5-3.1c0.099-1.1,0.2-2.2,0.2-3.2v-3.3C156.299,47,157.2,45.9,157.101,45"/>
	<path clip-path="url(#SVGID_8_)" d="M52.9,68.2c-0.4-1.9-1.4-3.6-2.9-5c-0.9-0.8-1.9-1.6-3.1-2.2c-1.101-0.6-2.3-1.1-3.5-1.4
		c-1.2-0.3-2.4-0.6-3.5-0.7c-0.4,0-0.9-0.1-1.3-0.1c-0.801,0-1.6,0.1-2.4,0.2c-1.5,0.3-2.901,0.8-4.2,1.5
		c-1.201,0.7-2.201,1.5-3.1,2.3c-1.101,1-2.3,2.2-3.5,3.5c-1.2,1.4-2.4,2.9-3.5,4.5c-1.101,1.6-2.101,3.2-2.9,4.9
		c-0.9,1.7-1.6,3.4-2,4.9c0,0.101,0,0.201-0.1,0.201C16.1,83.2,15.6,85.5,15.6,87.6c0,2.201,0.3,4.201,1,5.9
		c0.6,1.5,1.4,2.801,2.3,4c-0.2,0-0.3,0.1-0.5,0.1c-1.8,0.4-3.5,1.101-5,2.201l-0.101,0.099L13.2,100l-0.1,0.1
		c-1.801,1.5-1.801,3.5-1.9,5.701V106v0.1c0,2-0.1,4.101,1.9,6.201c2.6,3.099,5.4,5.199,8.3,6.299c1.899,0.701,3.8,1.101,5.8,1.101
		c1.2,0,2.4-0.101,3.599-0.399L31.4,119.2h0.1c2.5-0.5,4.7-1.399,6.5-2.601c1.799-1.1,3.299-2.299,4.6-3.7
		c1.3-1.3,2.3-2.8,3.1-4.199c0.599-1.101,1.2-2.2,1.599-3.301c0.101-0.099,0.101-0.199,0.101-0.3c0.7-1.6,1-3.2,1-4.7
		c0-2.5-0.7-4.599-2.101-6.399C46,93.6,45.6,93.2,45.2,92.7c0.9-0.399,1.599-0.899,2.2-1.7c0.5-0.601,1.1-1.4,1.6-2.4
		c0-0.1,0.1-0.2,0.1-0.299c0.4-1,0.9-2.101,1.3-3.5c0.399-1.201,0.8-2.5,1.1-3.801c0.4-1.3,0.7-2.601,0.9-3.9
		c0.3-1.2,0.5-2.4,0.6-3.3v-0.6v-1.3C53.4,70.9,53.2,69.6,52.9,68.2"/>
	<path clip-path="url(#SVGID_8_)" d="M86.8,63.8C86.4,62.5,86,61.2,85.4,60.1C84.8,59,84.2,58,83.5,57c-0.599-0.9-1.3-1.6-1.899-2.3
		c0,0,0-0.1-0.101-0.1c-1.399-1.5-3.099-2.4-5.099-2.7C75.7,51.8,75,51.7,74.3,51.7c-1,0-2,0.1-3.1,0.3c-1.7,0.3-3.4,0.9-5.2,1.7
		c-1.599,0.7-3.3,1.6-5,2.5c-1.599,1-3.2,2-4.7,3s-2.899,2-4.199,3c0,0-0.101,0-0.101,0.1c-1.2,0.9-1.899,2.4-2.7,5.2
		c-0.5,1.9-1.1,4.2-1.6,6.8c-0.5,2.601-1.099,5.5-1.599,8.5C45.5,85.8,45,88.7,44.5,91.5c-0.5,2.7-1,5.2-1.5,7.399
		c-0.599,2.601-1,3.7-1.2,4.101c-0.1,0.2-0.1,0.3-0.199,0.5C41.2,104.8,41,105.8,41,106.8c0,1.8,0.401,3.3,1.3,4.5
		c0.801,1.1,1.801,1.9,3,2.5c0.9,0.4,1.9,0.8,3.101,1l0.5,0.1L50.7,115.2c0.201,0,0.3,0,0.5,0.1h0.5c0.6,0,1.201-0.1,1.8-0.2
		c2.101-0.399,3.3-1.5,3.901-2.3C58,112,58.5,111.1,58.9,110c0.099-0.2,0.099-0.4,0.2-0.601c0.5-2.1,1-4.3,1.5-6.399
		c0.399-1.7,0.8-3.4,1.3-5.101C63.4,97,65,96.1,66.5,95.1c2-1.3,4-2.8,5.901-4.3c1.899-1.5,3.7-3.1,5.399-4.7
		c1.7-1.699,3.2-3.3,4.4-5l0.1-0.1c1.301-1.8,2.4-3.6,3.4-5.5c1.201-2.2,1.8-4.7,1.8-7.2C87.4,66.8,87.2,65.2,86.8,63.8"/>
	<path clip-path="url(#SVGID_8_)" d="M118,82.601c-0.1-4-0.1-8-0.2-11.9v-11c0-3.3,0.1-6.2,0.301-8.6c0-0.4,0.099-0.8,0-1.2v-0.2
		v-0.4c-0.101-1.9-0.701-3.4-1.601-4.6c-1.1-1.4-2.8-2.2-5-2.4h-0.3h-0.8c-1.2-0.1-2.5-0.2-4-0.2h-0.7c-2,0-4.4,0.4-7.2,1.2
		c-2.2,0.6-4,1.6-5.3,3.1c-1,1.2-1.9,2.5-2.7,4c-1.5,3.1-3.1,6.8-4.8,10.9c-1.7,4.1-3.4,8.3-5.099,12.6
		c-1.701,4.3-3.301,8.599-4.801,12.7c-1.5,4.1-2.8,7.898-3.9,11.1v0.1c-0.299,0.9-0.5,1.801-0.6,2.5s-0.1,1.4-0.1,2.101
		c0.1,1.399,0.6,2.7,1.401,3.8c0.599,0.799,1.399,1.4,2.299,2c0.701,0.4,1.5,0.799,2.4,1.1c0.7,0.199,1.301,0.4,2,0.601l0.7,0.2
		c0.101,0,0.2,0,0.3,0.1c0.5,0.1,1,0.1,1.5,0.1c0.7,0,1.4-0.1,2.1-0.301C85,109.7,86.7,108.9,88,106.7c0.601-1,1.2-2.201,1.7-3.6
		c0.5-1.2,1-2.602,1.5-4.102c0.3-0.799,0.5-1.5,0.8-2.299c1.4-0.701,2.9-1.4,4.5-2.201c0.601-0.299,1.3-0.599,1.9-0.898
		c0.1,0.699,0.1,1.398,0.201,2.1c0.199,2.299,0.799,4,1.899,5.2c1.2,1.3,2.9,2.099,5.101,2.2h0.199c0.5,0.1,0.9,0.1,1.4,0.1
		c0.7,0,1.401-0.1,2-0.201c1-0.199,2-0.398,3.1-0.699c2.301-0.6,3.801-1.6,4.801-2.899c0.899-1.3,1.299-3,1.199-5.101
		C118.2,90.4,118.101,86.601,118,82.601"/>
	<path clip-path="url(#SVGID_8_)" fill="#FFFFFF" d="M159,37.9c1.601-1,3.3-2.1,5.199-3.3c1.901-1.2,3.901-2.3,5.901-3.5
		c2.099-1.2,4.199-2.3,6.399-3.4c2.199-1.1,4.3-2.1,6.5-3.1l0.3-0.1c1.301-0.5,2.399-0.6,3.2-0.4c0.8,0.3,1.5,0.8,2,1.7v-0.1
		c0.601,0.8,1,1.4,1.199,2c0.301,0.5,0.5,1.1,0.801,1.8h-0.101c0.3,0.5,0.4,1,0.5,1.5c0.201,1.1,0.101,2-0.399,2.6
		c-0.399,0.6-1.301,1.3-2.601,2c-2.1,1-4.299,2.1-6.5,3.2c-2.2,1.1-4.6,2.4-7.1,3.7c-0.3,1.5-0.601,3.2-0.8,4.9
		c-0.301,1.8-0.601,3.5-0.899,5.3c1.699-0.9,3.5-1.7,5.299-2.4l0.4-0.2c1.2-0.5,2.2-0.6,2.899-0.5c0.801,0.1,1.401,0.6,2.101,1.4
		v-0.1c0.6,0.7,1.1,1.5,1.5,2.2c0.301,0.8,0.7,1.5,1,2.3h-0.101c0.301,0.5,0.401,1,0.5,1.4c0.101,0.7,0,1.3-0.399,1.9
		c-0.4,0.6-1,1.2-1.699,1.7c-0.701,0.5-1.601,1.1-2.601,1.6s-2,1.1-3,1.6h0.101c-1.5,0.9-3,1.8-4.401,2.6
		C172.8,67,171.3,67.9,170,68.7c-0.2,0.9-0.399,1.9-0.601,3c-0.2,1.1-0.2,2-0.2,2.8c1.5-0.9,3.101-1.8,4.7-2.6
		c1.601-0.9,3.4-1.7,5.201-2.4c1.099-0.4,2-0.6,2.799-0.4c0.701,0.2,1.4,0.7,1.9,1.5v-0.1c0.7,0.8,1.301,1.7,1.899,2.7
		c0.601,1,1,2.1,1.101,3.1c0.2,0.9,0,1.7-0.4,2.2c-0.399,0.5-1.2,1.2-2.299,1.9c-2.5,1.6-5.201,3.199-7.801,4.8
		c-2.699,1.6-5.3,3.2-7.8,4.8l0.101-0.1c-1.101,0.699-2,1.199-2.801,1.5c-0.9,0.3-1.699,0.5-2.4,0.5c-0.7,0-1.399-0.101-2.1-0.301
		c-0.699-0.199-1.3-0.6-2-1c-0.699-0.399-1.5-0.899-2.3-1.399v0.1c-0.7-0.399-1.2-0.899-1.7-1.5c-0.4-0.6-0.8-1.399-0.9-2.5
		c-0.1-0.6-0.1-1.2-0.1-1.899l4.1-44.5L159,37.9z"/>
	<path clip-path="url(#SVGID_8_)" fill="#FFFFFF" d="M15.4,103.601c1.1-0.801,2.3-1.301,3.5-1.5c0.8-0.2,1.6-0.2,2.3-0.102
		c0.7,0.102,1.3,0.301,1.9,0.701c1.6,1,3.1,1.799,4.4,2.2c1.299,0.399,2.5,0.5,3.4,0.3c0.7-0.1,1.3-0.4,1.7-0.9
		c-0.1-0.399-0.5-0.899-1.4-1.6c-0.901-0.701-1.901-1.4-3.1-2.201c-1.1-0.699-2.2-1.5-3.301-2.199c-1.099-0.699-2-1.6-2.899-2.5
		c-0.8-0.899-1.5-2-2-3.301c-0.5-1.299-0.7-2.699-0.7-4.398c0-1.801,0.4-3.801,1.2-6v0.1c0.399-1.3,1-2.701,1.8-4.201
		c0.8-1.5,1.7-2.999,2.7-4.399s2.1-2.8,3.2-4.1c1.1-1.3,2.3-2.4,3.4-3.4l-0.1,0.1c0.6-0.6,1.3-1.2,2.2-1.7s1.9-0.9,3-1.1
		c0.699-0.1,1.6-0.2,2.5-0.1s1.8,0.3,2.8,0.5c0.899,0.3,1.8,0.6,2.7,1.1s1.6,1,2.199,1.6c0.901,0.9,1.5,1.9,1.801,3
		c0.199,1.1,0.3,2.1,0.3,3.1v1.3c-0.101,0.9-0.3,1.9-0.601,3.099C48.1,78.2,47.799,79.4,47.4,80.7c-0.3,1.2-0.7,2.5-1.101,3.7
		c-0.399,1.2-0.799,2.2-1.199,3.099c-0.301,0.701-0.7,1.201-1,1.602c-0.301,0.398-0.801,0.699-1.301,0.8
		c-0.399,0.099-0.899,0.099-1.5-0.101C37.4,88.9,35.5,86.999,35.6,83.999c0-0.398,0.1-0.898,0.3-1.699c0.2-0.801,0.399-1.6,0.6-2.5
		c0.2-0.899,0.4-1.801,0.7-2.699c0.2-0.9,0.4-1.7,0.4-2.3l-0.1,0.1V75c-0.6,0.4-1.201,1.101-1.9,1.9c-0.7,0.8-1.301,1.8-2,2.8
		c-0.6,1-1.1,2.1-1.6,3.2c-0.4,1.099-0.6,2.2-0.6,3.2c0,1.1,0.3,2,0.8,2.6v-0.1c1.099,1.1,2.3,2.199,3.7,3
		c1.399,0.898,2.7,1.699,3.899,2.6c1.201,0.9,2.201,1.799,3.101,2.9c0.8,1,1.2,2.3,1.2,3.8c0,1-0.301,2.099-0.7,3.3v-0.1
		c-0.4,1-0.9,2.1-1.601,3.199c-0.599,1.199-1.5,2.301-2.599,3.4c-1.1,1.1-2.3,2.1-3.8,3.1c-1.5,0.9-3.2,1.601-5.3,2.101l-0.6,0.099
		c-2.5,0.5-5,0.301-7.201-0.5c-2.299-0.898-4.5-2.599-6.699-5.199c-1.301-1.399-1.9-2.5-1.9-3.5v-0.1
		C13.799,105.4,14.299,104.499,15.4,103.601"/>
	<path clip-path="url(#SVGID_8_)" fill="#FFFFFF" d="M74.4,83.6c-1.5,1.5-3.2,3-5,4.4c-1.8,1.4-3.7,2.8-5.601,4.1
		c-2,1.301-3.899,2.5-5.799,3.5c-0.6,2.301-1.1,4.5-1.701,6.801C55.7,104.6,55.2,106.8,54.7,109c-0.3,0.8-0.6,1.4-0.901,1.8
		c-0.299,0.4-0.799,0.7-1.5,0.8C51.9,111.7,51.5,111.7,51,111.7c-0.8-0.101-1.5-0.3-2.3-0.4c-0.8-0.1-1.401-0.3-2-0.6
		c-0.6-0.3-1.1-0.7-1.401-1.2c-0.399-0.5-0.5-1.2-0.5-2.1c0-0.5,0.101-1.301,0.401-2.2c0.4-1,0.9-2.601,1.4-4.8
		c0.5-2.2,1-4.7,1.5-7.601c0.5-2.8,1.1-5.7,1.6-8.8c0.599-3,1.099-5.8,1.599-8.4s1-4.8,1.601-6.6c0.5-1.8,1-2.9,1.399-3.2
		c1.201-0.9,2.601-1.9,4-2.9c1.401-1,2.901-1.9,4.5-2.8c1.5-0.9,3.101-1.7,4.601-2.3c1.5-0.7,3-1.1,4.3-1.4
		c1.4-0.3,2.599-0.3,3.7-0.1c1.1,0.2,2.1,0.7,2.899,1.6c0.5,0.6,1,1.2,1.601,1.9c0.6,0.7,1.1,1.6,1.5,2.5c0.5,0.9,0.8,1.9,1.1,3
		c0.299,1.1,0.4,2.3,0.4,3.5c0,1.9-0.5,3.7-1.3,5.4c-0.9,1.7-1.9,3.3-3.1,5C77.299,80.5,76,82,74.4,83.6 M63.4,75.9
		c-0.5,1.8-1.101,3.6-1.601,5.6C63.5,80.4,65,79.2,66.4,78c1.3-1.2,2.399-2.4,3.3-3.6c0.9-1.1,1.599-2.2,2.099-3.2
		s0.701-1.8,0.701-2.5c0-0.1,0-0.2,0.1-0.3c0-0.1,0-0.2-0.1-0.3S72.2,68,72,68c-0.201,0-0.701,0.1-1.3,0.2c-0.8,0.2-1.7,0.5-2.7,0.9
		s-2,1-3.1,1.7C64.4,72.5,63.9,74.2,63.4,75.9"/>
	<path clip-path="url(#SVGID_8_)" fill="#FFFFFF" d="M101.5,89l-0.2-1.1c-2.4,1-4.7,2.1-7,3.1c-2.3,1-4.3,2-6.1,3
		c-0.5,1.2-1,2.5-1.4,3.9c-0.4,1.399-0.9,2.6-1.4,3.8s-1,2.2-1.5,3s-1.1,1.3-1.7,1.5c-0.6,0.2-1.2,0.2-1.9,0.1l-0.7-0.2
		c-0.6-0.1-1.2-0.3-1.8-0.5c-0.6-0.199-1.1-0.399-1.6-0.699c-0.5-0.301-0.9-0.601-1.2-1c-0.3-0.4-0.5-0.9-0.5-1.5
		c0-0.4,0-0.9,0.1-1.4s0.2-1.1,0.4-1.8c1-3.2,2.3-6.8,3.8-10.9c1.5-4.1,3.1-8.3,4.8-12.6c1.7-4.3,3.4-8.5,5.1-12.5
		c1.7-4.1,3.3-7.6,4.7-10.7c0.5-1.1,1.2-2.2,2-3c0.8-0.9,1.9-1.5,3.4-1.9c2.5-0.7,4.5-1,6.2-1s3.1,0,4.4,0.1h1
		c1.1,0.1,1.9,0.4,2.3,0.9c0.4,0.5,0.7,1.3,0.7,2.2v0.6V51v-0.1c-0.1,2.6-0.2,5.6-0.3,9.1v11.1c0,3.9,0.1,7.9,0.2,11.9
		c0.1,4,0.2,7.9,0.3,11.5c0.1,1.2-0.1,2.1-0.5,2.7c-0.4,0.6-1.3,1-2.6,1.399c-1,0.301-1.9,0.5-2.8,0.601c-0.9,0.2-1.8,0.2-2.7,0h0.1
		c-1.1-0.101-1.9-0.4-2.3-0.9c-0.4-0.5-0.7-1.5-0.9-3C101.8,93.6,101.7,91.4,101.5,89 M97.7,70.4c-1.1,2.6-2.2,5.2-3.3,8
		c1.1-0.5,2.2-0.9,3.2-1.301c1.1-0.399,2.1-0.8,3.2-1.2v-6.5v-6.3C99.9,65.4,98.8,67.8,97.7,70.4"/>
	<path clip-path="url(#SVGID_8_)" fill="#FFFFFF" d="M149.101,74.6c0.5,0.4,0.8,1,0.898,1.7c0.102,0.5,0,1.101-0.099,1.801
		c-0.2,0.699-0.3,1.398-0.602,2.1c-1.099,3.7-2.898,7-5.198,9.9c-2.302,2.898-5.302,4.898-8.9,6.199c-0.3,0.101-0.6,0.199-0.8,0.301
		c-0.2,0.1-0.401,0.1-0.602,0.199h0.102c-1.7,0.4-3.3,0.601-4.7,0.601h-3.8h0.099c-0.599,0-1.2,0-1.799-0.2
		c-0.701-0.201-1.3-0.5-1.901-0.9C121.2,95.9,120.6,95.499,120.1,94.9c-0.5-0.5-0.9-1.101-1.2-1.7v0.1
		c-0.601-0.899-1.101-2.1-1.5-3.301C117,88.7,116.7,87.3,116.5,85.9c-0.299-2.3-0.299-5-0.099-7.901c0.2-2.999,0.7-6.099,1.3-9.299
		c0.7-3.2,1.599-6.4,2.7-9.5c1.099-3.2,2.399-6.1,4-8.8c1.5-2.7,3.2-5,5.099-7c1.901-2,4-3.3,6.201-4.1c0.2-0.1,0.4-0.1,0.599-0.2
		c0.2-0.1,0.401-0.1,0.602-0.2h-0.102c1-0.2,2-0.4,3-0.5c1-0.1,2.102-0.2,3-0.2c1,0,1.901,0.1,2.802,0.2
		c0.898,0.1,1.698,0.4,2.3,0.6c1.7,0.7,2.8,1.6,3.5,2.7c0.599,1.1,1,2.5,1.2,4c0.1,0.8,0.198,1.7,0.198,2.7s0.102,2,0,3
		c0,1-0.099,2-0.198,2.9c-0.102,1-0.2,1.8-0.4,2.6c-0.1,0.1-0.1,0.2-0.1,0.3c-0.102,0.7-0.4,1.3-0.602,1.8
		c-0.299,0.5-0.898,0.9-1.898,1.2c-0.2,0.1-0.4,0.1-0.602,0.2c-0.2,0.1-0.5,0.1-0.7,0.1c-1.3,0.2-2.398,0.2-3.3,0.1
		c-0.898-0.1-1.7-0.4-2.299-0.9c-0.6-0.4-1.201-1-1.6-1.7c-0.4-0.7-0.7-1.6-1-2.6c-0.102-0.7-0.2-1.5-0.2-2.2c0-0.8-0.102-1.4-0.2-2
		c-0.1-0.4-0.1-0.8-0.3-1.1c-0.102-0.3-0.3-0.5-0.5-0.6c-0.602,0.2-1.2,1-2,2.4c-0.8,1.4-1.5,3.1-2.3,5c-0.802,1.9-1.5,4-2.102,6.2
		c-0.7,2.2-1.2,4.2-1.599,6.1c-0.5,2.4-0.8,4.8-0.901,7.1c-0.099,2.301-0.099,4.301,0.102,6c0.1,1.101,0.398,2,0.6,2.699
		c0.299,0.701,0.7,1,1.099,1.102l0.2-0.102c1.201-0.398,2.901-2.5,5.102-6.199c1.6-2.6,3.698-4.3,6.1-5.2
		c0.5-0.2,1.099-0.3,1.599-0.4c0.602-0.1,1.102-0.1,1.802-0.2C147.799,74,148.601,74.2,149.101,74.6"/>
</g>
<g>
	<defs>
		<rect id="SVGID_9_" width="258" height="152"/>
	</defs>
	<clipPath id="SVGID_10_">
		<use xlink:href="#SVGID_9_"  overflow="visible"/>
	</clipPath>
	<path clip-path="url(#SVGID_10_)" d="M45.4,30.8c-0.601-0.9-1.4-1.6-2.5-2.1c-0.101,0-0.2-0.1-0.3-0.1c-0.301-0.1-0.7-0.2-1-0.4
		c-0.5-0.2-1-0.3-1.5-0.4s-1-0.2-1.5-0.2h-0.7c-0.601,0-1.101,0.1-1.7,0.2c-1.1,0.3-2.2,0.9-3,1.8c-0.5,0.5-0.901,1.2-1.2,1.9
		c-0.8-0.4-1.701-0.7-2.6-0.8c-0.4-0.1-0.9-0.1-1.3-0.1c-0.6,0-1.301,0.1-1.9,0.2c-1.2,0.3-2.2,1-3,1.9c-0.5,0.7-1,1.5-1.3,2.5
		c-0.601,1.7-1.101,3.5-1.7,5.4c-0.5,1.9-1.1,3.8-1.5,5.7c-0.5,1.9-0.8,3.8-1.1,5.6c-0.301,1.9-0.5,3.7-0.5,5.2c0,2,0.3,3.6,0.8,5.1
		v0.1c1.3,3.4,3.6,4.7,5.3,5.3c1,0.3,2,0.5,3.099,0.5c1.201,0,2.5-0.2,3.801-0.5c1-0.3,2-0.7,2.9-1.1c0.9-0.5,1.7-1.1,2.5-1.8
		c0.1-0.1,0.1-0.1,0.2-0.2c1.3-1.3,2.5-3,3.5-5.1c0.9-1.9,1.8-4.1,2.599-6.5c0.701-2.4,1.5-5,2.101-7.9c0.6-2.8,1.3-5.8,1.899-9
		C45.9,35.6,46,35.3,46,35c0-0.3,0.1-0.6,0.1-0.9C46.299,32.8,46,31.7,45.4,30.8"/>
	<path clip-path="url(#SVGID_10_)" d="M62.5,41.1c1-1.2,1.8-2.6,2.5-4.1c0.8-1.7,1.2-3.5,1.2-5.3c0-0.9-0.099-1.9-0.3-2.7
		c-0.2-0.9-0.5-1.6-0.9-2.4c-0.3-0.7-0.7-1.3-1.2-1.9c-0.4-0.5-0.8-1-1.199-1.4L62.5,23.2c-0.899-0.8-2.399-1.8-4.8-1.9h-0.5
		c-1.2,0-2.5,0.2-3.8,0.5c-1,0.3-2.1,0.7-3.2,1.1c-1.099,0.5-2.099,1-3.099,1.5c-1,0.6-2,1.2-2.901,1.8c-1,0.7-1.9,1.3-2.599,2
		C40.8,28.9,40.3,29.8,40.2,30.8c-0.2,1.7-0.5,3.5-0.8,5.4c-0.299,1.9-0.7,3.9-1.1,5.8c-0.4,2-0.8,3.9-1.1,5.7
		c-0.4,1.9-0.7,3.7-0.9,5.4c0,0.3-0.1,0.5-0.1,0.8c-0.099,0.4-0.099,0.8-0.099,1.2c0,1.2,0.199,2.2,0.699,3.1
		c0.2,0.4,0.5,0.8,0.801,1.2c0,0,0,0.1,0.099,0.1c0.8,1.1,1.7,2,2.8,2.6c0.7,0.4,1.4,0.7,2.101,0.9c0.599,0.3,1.199,0.5,1.699,0.6
		c0.301,0.1,0.7,0.1,1.1,0.1c0.5,0,1.1-0.1,1.6-0.2c0.9-0.2,1.8-0.7,2.9-1.4c0,0,0.1,0,0.1-0.1c0.7-0.4,1.5-1,2.3-1.5
		c0.9-0.6,1.801-1.3,2.7-2c0.9-0.7,1.8-1.5,2.601-2.3c0.899-0.9,1.699-1.8,2.299-2.7c0-0.1,0.1-0.1,0.1-0.2c0.8-1.1,1.5-2.2,2-3.3
		c0.601-1.4,0.9-2.9,0.9-4.5c0-1.4-0.299-2.8-0.9-4.1C62.3,41.4,62.4,41.3,62.5,41.1C62.5,41.2,62.5,41.1,62.5,41.1"/>
	<path clip-path="url(#SVGID_10_)" d="M84.8,21v-0.2c-0.1-0.5-0.199-0.9-0.3-1.4c-0.099-0.5-0.3-1.1-0.599-1.8c0,0,0-0.1-0.101-0.1
		c-0.6-1.6-1.6-2.4-2.399-2.9c-0.8-0.5-1.701-0.7-2.701-0.7c-0.599,0-1.2,0.1-1.799,0.3H76.7h-0.2c-1.2,0.4-2.399,0.8-3.599,1.3
		c-1.201,0.5-2.3,1-3.401,1.5c-1.099,0.5-2.099,1-3.2,1.6c-1,0.5-1.899,1-2.699,1.5c-0.601,0.3-1,0.8-1.401,1.3L61.8,22
		c-0.3,0.4-0.5,0.9-0.6,1.4L55.9,48v0.2C55.8,48.8,55.8,49.4,55.8,49.9c0,1.2,0.2,2.2,0.601,3C56.8,53.8,57.3,54.5,58,55.2
		c0.101,0.1,0.101,0.1,0.2,0.2c0.3,0.3,0.5,0.6,0.8,0.8C59.4,56.6,59.9,57,60.4,57.3C61.2,57.8,62,58.2,63,58.3
		c0.3,0,0.601,0.1,0.901,0.1c0.599,0,1.2-0.1,1.899-0.3c0.601-0.1,1.2-0.4,1.801-0.7c0.099-0.1,0.3-0.1,0.399-0.2
		c1.3-0.7,2.601-1.3,3.901-2c1.399-0.7,2.7-1.4,4-2.1C77,52.6,77.8,52,78.4,51.3c0.799-1,1.299-2.3,1.299-3.8c0-1-0.2-2-0.5-3
		c-0.299-0.8-0.599-1.6-0.9-2.3c-0.1-0.2-0.199-0.4-0.3-0.6c0.7-0.5,1.3-1,1.8-1.7c0.801-1,1.2-2.2,1.2-3.5c0-0.4,0-0.7-0.099-1.2
		c0-0.2,0-0.3-0.101-0.5l-0.3-1.4c-0.2-0.8-0.5-1.6-0.899-2.3c0-0.1-0.101-0.1-0.101-0.2c-0.3-0.6-0.7-1.1-1.099-1.5
		C79.2,29,80,28.7,80.8,28.4H80.9c1.399-0.6,2.399-1.3,3-2.2c0.799-1,1.2-2.3,1.2-3.8C84.9,21.9,84.9,21.4,84.8,21"/>
	<path clip-path="url(#SVGID_10_)" d="M105.9,17.3c-0.3-1-0.601-2-1-2.8c-0.4-0.8-0.9-1.6-1.4-2.2c-0.4-0.5-0.9-1.1-1.3-1.5
		l-0.1-0.1c-1.2-1.3-2.801-2.1-4.5-2.3c-0.4,0-0.801-0.1-1.2-0.1c-0.9,0-1.9,0.1-2.8,0.4c-1,0.3-2,0.7-3.1,1.2
		c-0.9,0.5-1.9,1-2.8,1.6c-0.901,0.6-1.901,1.2-2.8,1.9c-0.9,0.6-1.7,1.3-2.5,1.9c-1,0.8-1.8,2.1-2.601,4.2c-0.5,1.4-1,3-1.5,4.9
		c-0.5,1.8-0.899,3.8-1.299,5.9s-0.8,4.1-1.201,6.1c-0.399,1.9-0.699,3.7-1,5.3L74.6,42.9l-0.4,2.4v0.1C74,46,74,46.6,74,47.1
		c0,1.4,0.299,2.6,0.9,3.6c0.7,1.1,1.6,1.8,2.8,2.3c0.7,0.3,1.599,0.4,2.4,0.5c0.4,0,0.9,0,1.3,0.1h0.5c0.5,0,1.1-0.1,1.6-0.2
		c1.299-0.3,2.4-1.1,3.1-2.1c0.5-0.7,0.9-1.6,1.199-2.6v-0.1C87.9,48.2,88,47.8,88.1,47.5c0.6,0.5,1.1,0.9,1.699,1.3
		C89.9,48.9,90.1,49,90.2,49c1,0.5,2,0.9,3,1H94c0.7,0,1.299-0.1,1.9-0.2c0.6-0.2,1.1-0.4,1.6-0.6c0.1-0.1,0.2-0.1,0.4-0.2
		c0.5-0.2,0.899-0.5,1.5-0.8c0.5-0.3,0.899-0.7,1.3-1.1c0.599-0.5,1-1.1,1.4-1.8c0.6-1,0.9-2.1,0.9-3.2c0-1.7-0.8-3.3-2.1-4.4
		c-0.101-0.1-0.2-0.1-0.2-0.2c-0.3-0.3-0.6-0.5-0.901-0.9c-0.5-0.5-0.899-0.9-1.399-1.5c-0.101-0.1-0.2-0.2-0.2-0.3
		c1.099-1.1,2.2-2.2,3.099-3.3c1.801-2,3.101-4.1,4-6.3c0.101-0.1,0.101-0.3,0.201-0.4c0.2-0.6,0.4-1.3,0.6-1.9
		c0.199-0.7,0.199-1.5,0.199-2.3C106.299,19.5,106.2,18.3,105.9,17.3"/>
	<path clip-path="url(#SVGID_10_)" fill="#FFFFFF" d="M21.5,57.2c0-1.4,0.101-2.9,0.4-4.6c0.3-1.7,0.6-3.5,1.1-5.3
		c0.4-1.8,0.9-3.7,1.5-5.5c0.5-1.8,1.101-3.6,1.601-5.3c0.199-0.6,0.399-1,0.599-1.3c0.2-0.3,0.5-0.5,0.901-0.6
		c0.399-0.1,0.899-0.1,1.5,0c0.5,0.1,1.099,0.3,1.599,0.5c0.5,0.3,0.901,0.6,1.2,1c0.3,0.4,0.5,0.9,0.5,1.5c0,0.4-0.1,0.9-0.299,1.4
		C31.7,40.3,31.2,41.8,30.7,43.5c-0.5,1.6-0.9,3.3-1.3,4.9c-0.4,1.6-0.799,3.2-1,4.6c-0.299,1.5-0.4,2.7-0.4,3.6
		c0,0.5,0,0.9,0.101,1.2c0.099,0.3,0.199,0.4,0.399,0.3c0.4-0.1,0.8-0.6,1.3-1.5c0.5-0.9,0.9-2.1,1.4-3.5c0.5-1.4,0.901-3,1.401-4.7
		c0.5-1.7,0.899-3.5,1.299-5.3c0.4-1.8,0.8-3.5,1.1-5.2c0.3-1.7,0.601-3.1,0.9-4.3v0.1c0.1-0.6,0.3-1.1,0.6-1.4
		c0.3-0.3,0.601-0.5,1-0.6c0.3-0.1,0.601-0.1,0.9-0.1c0.3,0,0.701,0.1,1,0.2c0.3,0.1,0.701,0.2,1,0.3c0.3,0.1,0.701,0.2,1,0.4
		c0.4,0.2,0.701,0.4,0.8,0.6c0.1,0.2,0.2,0.5,0.2,0.9v0.5c0,0.2-0.1,0.4-0.1,0.6c-0.6,3.2-1.3,6.2-1.9,9c-0.6,2.8-1.299,5.4-2,7.6
		c-0.7,2.3-1.5,4.3-2.299,6C35.3,59.4,34.3,60.8,33.3,61.8c-0.6,0.5-1.199,1-1.8,1.3c-0.6,0.3-1.3,0.6-2,0.8
		c-1.8,0.5-3.399,0.5-4.6,0.1c-1.2-0.4-2.2-1.4-2.799-2.9C21.7,60,21.5,58.7,21.5,57.2"/>
	<path clip-path="url(#SVGID_10_)" fill="#FFFFFF" d="M58.4,39.9c-0.4,0.4-0.799,0.9-1.2,1.3c0.6,0.4,1.1,1,1.401,1.8
		c0.399,0.8,0.5,1.7,0.5,2.5c0,1.1-0.201,2-0.601,2.9c-0.399,0.9-1,1.8-1.7,2.7c-0.5,0.7-1.199,1.5-1.9,2.2
		c-0.7,0.7-1.5,1.4-2.299,2.1c-0.801,0.7-1.601,1.3-2.5,1.8C49.3,57.8,48.5,58.3,47.8,58.7c-0.699,0.4-1.3,0.7-1.699,0.9
		C45.8,59.7,45.4,59.7,45.2,59.7c-0.3-0.1-0.599-0.2-0.9-0.4c-0.6-0.2-1.1-0.4-1.699-0.7c-0.5-0.3-1-0.8-1.5-1.4
		c-0.301-0.3-0.5-0.7-0.601-0.9c-0.2-0.3-0.2-0.7-0.2-1.2v-0.7c0-0.2,0.1-0.5,0.1-0.7c0.201-1.6,0.5-3.3,0.9-5.2
		c0.4-1.9,0.801-3.8,1.1-5.8c0.4-2,0.8-3.9,1.1-5.9c0.4-2,0.601-3.8,0.8-5.6c0.7-0.6,1.5-1.2,2.301-1.7
		c0.899-0.6,1.699-1.1,2.599-1.6c0.901-0.5,1.8-1,2.7-1.4c0.9-0.4,1.8-0.7,2.701-0.9c1.099-0.3,2.099-0.4,3-0.4
		c0.899,0,1.699,0.3,2.199,0.8c0.301,0.3,0.6,0.7,0.9,1c0.3,0.4,0.5,0.8,0.8,1.2c0.2,0.5,0.4,1,0.5,1.5c0.101,0.5,0.2,1.1,0.2,1.8
		c0,1.2-0.3,2.4-0.8,3.6c-0.6,1.2-1.299,2.3-2.1,3.3C59.101,39,58.8,39.5,58.4,39.9 M48,47.4c-0.2,0.8-0.399,1.6-0.6,2.3
		c-0.2,0.7-0.4,1.5-0.6,2.2c0.801-0.5,1.5-1,2.2-1.6c0.7-0.5,1.2-1.1,1.7-1.6s0.8-1,1.1-1.4c0.301-0.4,0.4-0.8,0.4-1.2
		c0-0.2-0.2-0.3-0.5-0.3s-0.7,0-1.099,0.1C50,46.3,49.101,46.7,48,47.4 M50,39.7c0.9-0.7,1.8-1.4,2.5-2.1c0.7-0.7,1.4-1.4,1.9-2
		c0.5-0.6,0.9-1.2,1.201-1.7C55.9,33.4,56,33,56,32.7c0-0.2-0.3-0.2-1,0c-0.5,0.1-1,0.4-1.6,0.7c-0.6,0.3-1.299,0.8-2.1,1.4
		c-0.199,0.6-0.4,1.3-0.6,2s-0.4,1.4-0.599,2.2C50.101,39.2,50.101,39.4,50,39.7"/>
	<path clip-path="url(#SVGID_10_)" fill="#FFFFFF" d="M65.7,23.5c0.8-0.4,1.7-0.9,2.7-1.4l3-1.5c1-0.5,2.1-1,3.2-1.4
		c1.1-0.5,2.2-0.8,3.2-1.2H78c0.6-0.2,1.1-0.2,1.5,0.1c0.4,0.2,0.6,0.6,0.8,1.1c0.2,0.5,0.3,0.9,0.4,1.2c0.1,0.3,0.2,0.7,0.2,1.1
		C81,21.7,81,22,81,22.3c0,0.6-0.1,1.1-0.4,1.4c-0.2,0.3-0.7,0.6-1.4,0.9c-1.1,0.4-2.1,0.8-3.2,1.3c-1.1,0.4-2.3,0.9-3.5,1.5
		c-0.2,0.8-0.5,1.7-0.8,2.7c-0.3,1-0.5,1.9-0.8,2.9c0.9-0.3,1.7-0.7,2.6-0.9l0.2-0.1c0.6-0.2,1.1-0.2,1.4-0.1c0.3,0.1,0.6,0.4,0.8,1
		c0.2,0.5,0.4,0.9,0.5,1.4s0.2,0.9,0.3,1.4c0.1,0.3,0.1,0.6,0.1,0.8c0,0.4-0.1,0.7-0.3,1.1c-0.2,0.3-0.5,0.6-0.9,0.8
		c-0.4,0.2-0.8,0.5-1.3,0.7s-1,0.4-1.5,0.7c-0.8,0.4-1.5,0.8-2.2,1.1c-0.7,0.3-1.4,0.7-2.2,1.1c-0.2,0.5-0.3,1.1-0.5,1.6
		c-0.2,0.6-0.3,1.1-0.3,1.5c0.8-0.4,1.6-0.7,2.4-1.1s1.7-0.7,2.6-0.9c0.5-0.1,1-0.1,1.3,0c0.3,0.2,0.6,0.5,0.8,1
		c0.2,0.5,0.5,1.1,0.7,1.7c0.2,0.6,0.3,1.2,0.3,1.8c0,0.5-0.1,0.9-0.3,1.2c-0.2,0.3-0.6,0.6-1.2,0.8c-1.3,0.7-2.6,1.4-4,2.1
		c-1.4,0.7-2.7,1.4-4,2.1c-0.6,0.3-1,0.5-1.4,0.6c-0.4,0.1-0.8,0.2-1.2,0.1c-0.3,0-0.6-0.2-0.9-0.4c-0.3-0.2-0.6-0.4-0.9-0.7
		c-0.3-0.3-0.6-0.6-1-1c-0.3-0.3-0.5-0.6-0.7-1c0-0.4-0.1-0.9-0.1-1.5c0-0.3,0-0.7,0.1-1.1l5.3-24.6L65.7,23.5z"/>
	<path clip-path="url(#SVGID_10_)" fill="#FFFFFF" d="M90.9,44.4c-0.5-0.4-1.1-0.9-1.6-1.5c-0.6-0.5-1.1-1.1-1.6-1.7s-1-1.2-1.5-1.8
		c-0.4,1.5-0.7,2.9-1,4.2c-0.3,1.4-0.7,2.7-1,4.1c-0.1,0.5-0.3,0.9-0.5,1.2c-0.2,0.3-0.5,0.5-0.9,0.6c-0.3,0.1-0.5,0.1-0.8,0.1
		c-0.5,0-1-0.1-1.4-0.1c-0.5,0-0.9-0.1-1.2-0.2c-0.4-0.1-0.6-0.4-0.8-0.7c-0.2-0.3-0.3-0.8-0.3-1.5c0-0.3,0-0.7,0.1-1.1
		c0.1-0.8,0.4-2,0.7-3.6c0.3-1.6,0.6-3.4,1-5.3c0.4-1.9,0.8-3.9,1.2-6c0.4-2.1,0.9-4,1.3-5.8s0.9-3.3,1.4-4.6
		c0.5-1.3,0.9-2.1,1.3-2.4c0.8-0.6,1.6-1.2,2.4-1.8c0.8-0.6,1.7-1.2,2.5-1.7c0.8-0.5,1.7-1,2.5-1.4c0.8-0.4,1.6-0.7,2.4-0.9
		c0.9-0.2,1.7-0.3,2.5-0.2c0.8,0.1,1.5,0.4,2.1,1.1c0.4,0.4,0.7,0.8,1.1,1.3c0.4,0.5,0.7,1,1,1.6c0.3,0.6,0.5,1.3,0.7,2
		s0.3,1.6,0.3,2.5c0,0.5,0,1-0.1,1.5c-0.1,0.4-0.2,0.9-0.4,1.3c-0.7,1.8-1.9,3.7-3.5,5.5c-1.6,1.8-3.5,3.6-5.7,5.5
		c0.4,0.5,0.9,1.1,1.4,1.7s1,1.1,1.5,1.7c0.5,0.6,1,1.1,1.5,1.6s1,0.9,1.4,1.3c0.5,0.4,0.7,0.8,0.7,1.4c0,0.4-0.1,0.7-0.3,1.1
		c-0.2,0.4-0.5,0.7-0.8,1c-0.3,0.3-0.6,0.5-0.9,0.7c-0.3,0.2-0.5,0.4-0.7,0.4c-0.2,0.1-0.5,0.3-0.7,0.4c-0.2,0.1-0.5,0.2-0.7,0.3
		c-0.4,0.1-0.8,0.1-1.3,0.1s-0.9-0.2-1.4-0.5C91.9,45.2,91.4,44.8,90.9,44.4 M92.7,21.2c-0.6,0.3-1.2,0.7-1.9,1.2
		c-0.3,0.9-0.6,1.9-0.9,2.9c-0.3,1-0.6,2.1-0.9,3.2c0,0.2-0.1,0.3-0.1,0.5c0,0.2-0.1,0.3-0.1,0.5c1.1-0.8,2-1.7,2.9-2.5
		c0.9-0.9,1.6-1.7,2.2-2.5c0.6-0.8,1-1.5,1.4-2.2c0.3-0.7,0.5-1.2,0.5-1.5c-0.1-0.3-0.6-0.3-1.4-0.1C93.8,20.7,93.3,20.9,92.7,21.2"
		/>
</g>
<rect x="42.7" y="122.9" fill="#E1001A" width="157" height="22"/>
<polygon fill="#BF0418" points="42.7,122.9 45.5,120.1 26.2,120.1 32.3,131.2 26.2,142.3 42.7,142.3 "/>
<polygon fill="#BF0418" points="199.7,122.9 196.9,120.1 216.1,120.1 210,131.2 216.1,142.3 199.7,142.3 "/>
<polygon fill="#FFFFFF" points="63.596,134.715 63.596,140.835 61.736,140.835 61.736,127.492 63.596,127.492 63.596,132.974 
	65.117,132.974 65.117,127.492 66.978,127.492 66.978,140.835 65.117,140.835 65.117,134.715 "/>
<g>
	<defs>
		<rect id="SVGID_11_" width="258" height="152"/>
	</defs>
	<clipPath id="SVGID_12_">
		<use xlink:href="#SVGID_11_"  overflow="visible"/>
	</clipPath>
	<path clip-path="url(#SVGID_12_)" fill="#FFFFFF" d="M73.837,137.435c0,1.601-0.06,1.92-0.42,2.5
		c-0.44,0.682-1.28,1.102-2.22,1.102c-0.941,0-1.781-0.42-2.221-1.102c-0.36-0.58-0.42-0.92-0.42-2.5v-6.561
		c0-1.581,0.06-1.921,0.42-2.501c0.44-0.66,1.28-1.08,2.221-1.08c0.94,0,1.78,0.42,2.22,1.08c0.36,0.58,0.42,0.92,0.42,2.501
		V137.435z M71.978,130.113c0-0.761-0.221-1.08-0.78-1.08c-0.54,0-0.781,0.319-0.781,1.08v8.103c0,0.759,0.22,1.08,0.781,1.08
		c0.54,0,0.78-0.321,0.78-1.08V130.113z"/>
	<path clip-path="url(#SVGID_12_)" fill="#FFFFFF" d="M77.076,136.896v0.58c0,1.38,0.24,1.819,0.96,1.819
		c0.561,0,0.841-0.46,0.841-1.319c0-0.882-0.221-1.4-1.141-2.621l-0.92-1.36c-1.14-1.721-1.52-2.641-1.52-3.821
		c0-1.76,1.06-2.881,2.74-2.881c1.261,0,2.181,0.72,2.441,1.941c0.1,0.5,0.1,0.559,0.1,1.66l-1.82,0.18c0-0.68-0.021-0.92-0.061-1.2
		c-0.059-0.54-0.359-0.84-0.779-0.84c-0.501,0-0.78,0.439-0.78,1.24c0,0.819,0.08,1,1.32,2.859l0.939,1.361
		c0.861,1.26,1.341,2.621,1.341,3.761c0,1.781-0.98,2.781-2.721,2.781c-1,0-1.7-0.321-2.22-1.021c-0.44-0.599-0.58-1.159-0.58-2.319
		c0-0.28,0-0.401,0.02-0.72L77.076,136.896z"/>
	<polygon clip-path="url(#SVGID_12_)" fill="#FFFFFF" points="83.396,129.233 81.654,129.233 81.654,127.493 87.076,127.493 
		87.076,129.233 85.255,129.233 85.255,140.836 83.396,140.836 	"/>
	<rect x="88.295" y="127.493" clip-path="url(#SVGID_12_)" fill="#FFFFFF" width="1.86" height="13.343"/>
	<polygon clip-path="url(#SVGID_12_)" fill="#FFFFFF" points="97.676,140.836 95.816,140.836 93.614,133.834 93.614,140.836 
		91.754,140.836 91.754,127.492 93.355,127.492 95.816,135.354 95.816,127.492 97.676,127.492 	"/>
	<path clip-path="url(#SVGID_12_)" fill="#FFFFFF" d="M104.536,140.836h-1l-0.28-0.921c-0.521,0.761-1.08,1.12-1.721,1.12
		c-0.78,0-1.52-0.46-1.9-1.18c-0.3-0.56-0.38-1.1-0.38-2.3v-7.063c0-2.12,0.88-3.199,2.64-3.199c1.781,0,2.681,1.159,2.681,3.479
		c0,0.281,0,0.541-0.04,1.062h-1.86c0.04-0.44,0.04-0.62,0.04-0.921c0-1.479-0.181-1.881-0.841-1.881c-0.6,0-0.76,0.3-0.76,1.46
		v7.063c0,0.979,0.02,1.12,0.12,1.34c0.14,0.28,0.361,0.419,0.64,0.419c0.301,0,0.56-0.179,0.681-0.479
		c0.099-0.222,0.12-0.422,0.12-1.28v-1.921h-0.821v-1.58h2.681V140.836z"/>
	<path clip-path="url(#SVGID_12_)" fill="#FFFFFF" d="M114.855,137.435c0,1.601-0.06,1.92-0.42,2.5
		c-0.44,0.682-1.28,1.102-2.22,1.102c-0.941,0-1.781-0.42-2.221-1.102c-0.36-0.58-0.42-0.92-0.42-2.5v-6.561
		c0-1.581,0.06-1.921,0.42-2.501c0.44-0.66,1.28-1.08,2.221-1.08c0.94,0,1.78,0.42,2.22,1.08c0.36,0.58,0.42,0.92,0.42,2.501
		V137.435z M112.995,130.113c0-0.761-0.221-1.08-0.78-1.08c-0.54,0-0.781,0.319-0.781,1.08v8.103c0,0.759,0.22,1.08,0.781,1.08
		c0.54,0,0.78-0.321,0.78-1.08V130.113z"/>
	<polygon clip-path="url(#SVGID_12_)" fill="#FFFFFF" points="122.334,140.836 120.475,140.836 118.272,133.834 118.272,140.836 
		116.413,140.836 116.413,127.492 118.014,127.492 120.475,135.354 120.475,127.492 122.334,127.492 	"/>
	<path clip-path="url(#SVGID_12_)" fill="#FFFFFF" d="M128.934,140.836h-1.801l1.82-13.343h2.401l1.74,13.343h-1.82l-0.34-3.001
		h-1.681L128.934,140.836z M130.094,129.913l-0.642,6.182h1.281L130.094,129.913z"/>
	<path clip-path="url(#SVGID_12_)" fill="#FFFFFF" d="M136.053,136.896v0.58c0,1.38,0.24,1.819,0.96,1.819
		c0.561,0,0.841-0.46,0.841-1.319c0-0.882-0.221-1.4-1.141-2.621l-0.92-1.36c-1.141-1.721-1.521-2.641-1.521-3.821
		c0-1.76,1.06-2.881,2.74-2.881c1.261,0,2.181,0.72,2.44,1.941c0.101,0.5,0.101,0.559,0.101,1.66l-1.82,0.18
		c0-0.68-0.021-0.92-0.061-1.2c-0.06-0.54-0.359-0.84-0.779-0.84c-0.501,0-0.78,0.439-0.78,1.24c0,0.819,0.08,1,1.32,2.859
		l0.938,1.361c0.861,1.26,1.342,2.621,1.342,3.761c0,1.781-0.98,2.781-2.722,2.781c-1,0-1.699-0.321-2.22-1.021
		c-0.44-0.599-0.58-1.159-0.58-2.319c0-0.28,0-0.401,0.021-0.72L136.053,136.896z"/>
	<polygon clip-path="url(#SVGID_12_)" fill="#FFFFFF" points="142.373,129.233 140.632,129.233 140.632,127.493 146.054,127.493 
		146.054,129.233 144.232,129.233 144.232,140.836 142.373,140.836 	"/>
	<polygon clip-path="url(#SVGID_12_)" fill="#FFFFFF" points="151.772,127.493 151.772,129.232 149.131,129.232 149.131,132.973 
		150.973,132.973 150.973,134.715 149.131,134.715 149.131,139.096 151.933,139.096 151.933,140.836 147.271,140.836 
		147.271,127.493 	"/>
	<path clip-path="url(#SVGID_12_)" fill="#FFFFFF" d="M154.971,127.492c1.502,0,2.182,0.239,2.722,0.94
		c0.479,0.62,0.7,1.52,0.7,2.781c0,1.659-0.181,2.261-0.939,3.239l1.299,6.383h-2l-1.081-5.741c-0.318,0.059-0.379,0.059-0.66,0.08
		v5.661h-1.859v-13.344H154.971z M155.272,133.294c0.6,0,0.938-0.141,1.12-0.479c0.14-0.261,0.18-0.582,0.18-1.801
		c0-1.441-0.26-1.781-1.3-1.781h-0.262v4.062H155.272z"/>
	<path clip-path="url(#SVGID_12_)" fill="#FFFFFF" d="M165.292,137.435c0,1.601-0.06,1.92-0.42,2.5
		c-0.439,0.682-1.279,1.102-2.22,1.102c-0.941,0-1.781-0.42-2.221-1.102c-0.36-0.58-0.42-0.92-0.42-2.5v-6.561
		c0-1.581,0.06-1.921,0.42-2.501c0.439-0.66,1.279-1.08,2.221-1.08c0.94,0,1.78,0.42,2.22,1.08c0.36,0.58,0.42,0.92,0.42,2.501
		V137.435z M163.433,130.113c0-0.761-0.222-1.08-0.78-1.08c-0.54,0-0.781,0.319-0.781,1.08v8.103c0,0.759,0.221,1.08,0.781,1.08
		c0.54,0,0.78-0.321,0.78-1.08V130.113z"/>
	<rect x="166.851" y="127.493" clip-path="url(#SVGID_12_)" fill="#FFFFFF" width="1.86" height="13.343"/>
	<path clip-path="url(#SVGID_12_)" fill="#FFFFFF" d="M172.291,127.492c1.301,0,1.899,0.18,2.461,0.741
		c0.559,0.54,0.84,1.34,0.84,2.34v7.181c0,1.001-0.281,1.802-0.84,2.342c-0.562,0.561-1.16,0.739-2.461,0.739h-1.981v-13.343
		H172.291z M172.411,139.096c1.021,0,1.319-0.301,1.319-1.342v-7.181c0-1.02-0.319-1.34-1.319-1.34h-0.24v9.862H172.411z"/>
	<path clip-path="url(#SVGID_12_)" fill="#FFFFFF" d="M178.73,136.896v0.58c0,1.38,0.239,1.819,0.96,1.819
		c0.561,0,0.841-0.46,0.841-1.319c0-0.882-0.221-1.4-1.141-2.621l-0.921-1.36c-1.14-1.721-1.52-2.641-1.52-3.821
		c0-1.76,1.06-2.881,2.74-2.881c1.261,0,2.181,0.72,2.44,1.941c0.101,0.5,0.101,0.559,0.101,1.66l-1.82,0.18
		c0-0.68-0.021-0.92-0.061-1.2c-0.06-0.54-0.359-0.84-0.779-0.84c-0.501,0-0.78,0.439-0.78,1.24c0,0.819,0.08,1,1.32,2.859
		l0.938,1.361c0.861,1.26,1.342,2.621,1.342,3.761c0,1.781-0.98,2.781-2.722,2.781c-1,0-1.7-0.321-2.22-1.021
		c-0.44-0.599-0.58-1.159-0.58-2.319c0-0.28,0-0.401,0.021-0.72L178.73,136.896z"/>
</g>
<polygon points="201.976,70.171 204.231,70.171 203.454,69.2 "/>
<polygon points="194.579,67.712 196.041,68.023 196.203,67.035 "/>
<polygon points="190.017,71.733 191.309,69.025 189.101,70.066 "/>
<g>
	<defs>
		<rect id="SVGID_13_" width="258" height="152"/>
	</defs>
	<clipPath id="SVGID_14_">
		<use xlink:href="#SVGID_13_"  overflow="visible"/>
	</clipPath>
	<path clip-path="url(#SVGID_14_)" fill="#FFFFFF" d="M196.7,67.2c0,0-12.4,3.6-17.2,7.9l-0.6,2.8l-3.9,4.5l-4.3,0.7l-2.8-2.899
		l-1-2.801l1.8-5.3l2-1.6l2.6-0.6l2.9-0.7l5.3-2.9l7.1-4.3l5.9-2.5l5.8-2.1l0.101-2.2l-2.9-0.1l-1.1-0.6l-0.7-5l1-2.6l1.399-1.3
		l1.801-1.4l2.8-1.8l2.5-0.4l1.399,0.2l0.9,1.1l2.5-3.8l14-20.4l15.4-11.4L255,3.5l0.5,1.3c0,0,6.9,8.9-14.7,33.5L221,57.8l-5.4,3.3
		l0.4,1.7l1.3,1.4c0,0,5.9,12.2,5,16.3l0.2,3.801c0,0-0.5,6.5-6.3,8.399c0,0-4.601,1.8-7.9-3.899c0,0-0.5-2.5,1.101-4.5
		c0,0,0.5-10.101-5.7-14.801C203.5,69.4,199.9,72.2,196.7,67.2"/>
	<path clip-path="url(#SVGID_14_)" d="M208,86.9c0,0,3.399,11.6,13,1.5c0,0-1.899,4.1-7.101,5.1C214,93.5,208.5,93.7,208,86.9"/>
	<path clip-path="url(#SVGID_14_)" fill="#E1001A" d="M196.2,65.2l2.8-4.8c0,0-15,4.8-21,10.8c0,0-5.3,0.2-6.7,1.7c0,0-3.8,5,0.5,8
		c0,0,4,1.901,6.7-5.5l0.7-1.2C179.2,74.1,192,65.4,196.2,65.2"/>
	<path clip-path="url(#SVGID_14_)" fill="#E1001A" d="M200.7,52l3.3-5.4c0,0,1.8-3.9-3-1.5c0,0-4.2,3.5-3.6,6.7c0,0,0.3,1.5,1,1.6
		l1.699-0.2L200.7,52z"/>
	<path clip-path="url(#SVGID_14_)" fill="#E1001A" d="M205.8,68.7l7.899-5.1c0,0,8,11.5,6.8,22.4c0,0-2.599,4.7-6,5.5
		c0,0-4.599-0.9-4.5-4.601c0,0-0.099-2.699,2.5-3.3C212.601,83.5,214.8,70.9,205.8,68.7"/>
	<path clip-path="url(#SVGID_14_)" fill="#E1001A" d="M256.3,13.7l-0.5-9c-30.899,13.2-51,50.4-51,50.4c0.301,0.6,0.801,1,1.301,1.4
		l-1.5,1.4l-5.101,8.7c0.9,2.7,3.3,2.6,3.3,2.6C203.4,69.1,224.699,55,224.699,55c-0.199-0.1-0.299-0.1-0.5-0.2
		C254.5,28,256.3,13.7,256.3,13.7"/>
	<path clip-path="url(#SVGID_14_)" fill="#E1001A" d="M245,33.6c16.5-20.8,10.5-28.5,10.5-28.5L255,3.8L239.3,8l-12.199,9
		c1.199,0,3.599,0.3,6.699,2.2C237.3,21.4,241.399,25.5,245,33.6"/>
	<path clip-path="url(#SVGID_14_)" fill="#FFFFFF" d="M245,34.3c10.399-12.9,11.199-19.7,11.199-19.7l-0.5-9
		c-8.099,3.5-15.5,8.6-21.899,14.2C237.3,22,241.399,26.2,245,34.3"/>
	<path clip-path="url(#SVGID_14_)" d="M252,4.7c0,0-0.801,3.4,3.8,3.3C255.8,7.9,257.199,2.2,252,4.7"/>
	<path clip-path="url(#SVGID_14_)" fill="#FFFFFF" d="M229.7,26.5c-1.3,0.1-2.5-0.1-3.3-0.7c-0.801-0.5-1.2-1.4-1.301-2.4
		c-0.1-1.9,1.101-4.2,3.101-6.2c2-1.9,4.5-3.2,6.8-3.4c1.3-0.1,2.5,0.1,3.3,0.7c2.3,1.6,1.5,5.4-1.899,8.6
		C234.5,25,232,26.3,229.7,26.5"/>
	<path clip-path="url(#SVGID_14_)" d="M230.9,24.3c-0.801,0-1.4-0.2-1.801-0.7c-0.399-0.4-0.6-1-0.6-1.7c0-1.3,0.799-2.8,2.1-3.9
		c1.199-1.1,2.699-1.8,4-1.8c0.801,0,1.4,0.2,1.801,0.7c1.199,1.3,0.5,3.8-1.602,5.7C233.6,23.6,232.2,24.3,230.9,24.3"/>
	<path clip-path="url(#SVGID_14_)" d="M254.7,3.2L254.7,3.2c-0.2,0-25.825-2.612-46.591,38.5c-0.5-0.6-0.909-0.8-2.409-0.7
		c-1,0-2.2,0.4-3.5,1.1l-0.3,0.2c-1.301,0.7-2.5,1.5-3.4,2.3c0,0-0.2,0.2-0.5,0.4c-2.1,2-2.5,4-2.5,5.3c-0.1,1.5,0.1,2.9,0.8,4.3
		l0.101,0.1c0.1,0.1,1.3,1.2,3.399,1.2c-0.2,0.7-0.399,1.2-0.5,1.3c-5.7,1.3-12.899,5.4-17.8,8.7h-0.1c0,0-3.301,2-5.2,2.8
		c-0.5-0.1-1-0.1-1.5-0.1c-1.8,0.1-4.3,0.7-6.2,3.2c-0.5,0.7-1,1.6-1.4,2.5c0,0.1-2.899,5.501,2.5,8.4
		c0.301,0.101,0.601,0.3,0.9,0.399c0,0,1,0.4,2.3,0.3c2-0.099,5.7-1.199,7-7.899c0.9-0.9,4.4-3.2,16.7-8.2c0.9,2.6,2.7,3.1,4,3.1
		s2.427-0.569,2.927-0.768c6.101,7.099,5.273,13.568,5.173,14.169c-1,1.899-1.3,3.699-0.699,5.299c0.899,2.8,3.8,4.101,4,4.101
		c0.6,0.199,1.3,0.399,1.899,0.3c2.601-0.101,4.9-2.101,5-2.199c9.5-7.5,1.5-25.801-1.8-30.401c0.2-0.6,2.8-2,4.2-3.1
		c1.8-1.4,6.5-5.1,8.3-6.6c2.7-2.3,2.8-2.4,5-4.5c8.2-8.1,11.1-12.2,11.1-12.3c14.301-18.7,11.5-24,10.7-30.7V3.6V3.5
		C256.2,3,255.9,2.8,255.4,2.9 M202,59l-0.5-0.3c0,0.1-3.6,5.8-4.8,7.3c-2.601,1.1-14.8,6.1-17.4,8.9l-0.1,0.1l0.1,0.4
		c-0.3,0.4-0.399,0.6-0.3,0.8c-0.8,1.899-2.9,6-6.3,6.199c-0.601,0-1.3-0.099-2-0.399c0,0-2.3-1.3-2.8-3.9
		c-0.4-1.899,0.3-4,1.899-6.2c0,0,2.101-2,7.3-2.4h0.101h0.1c0.2-0.2,0.5-0.3,0.7-0.5l0.3-0.2c1.2-0.7,3-1.8,4-2.3
		c3.601-1.9,7.2-4,7.2-4c7.8-3.8,13-5,13.1-5l0.9-0.2l-0.8-0.4c0,0-1.3-0.6-1.101-1.6l0.301-0.5c1.899-3.5,7.8-15.2,15.8-25.7
		c1.3-1.8,4.3-5.4,5.3-6.6c4.7-5.1,7.6-7.6,12.7-11.5c5.5-4,13.2-5.4,17.1-5.9l0.9-0.1c0.899-0.2,1.1,0.3,1.3,0.3c0,0,0-0.8-0.1-0.4
		c-0.101,2,2.5,7-2.601,16.7c-8,14.7-19.1,25-32.6,36.2c-5.7,4.5-10.3,6-13.5,8.4c-2.601,1.7-4.5,2.9-5.5,3.4
		c-0.8,0-1.5-0.2-2.101-0.6c-0.5-0.8-0.899-1.8-1-2.5L202,59z M206.1,43c0.4,0.6,0.4,1.7-0.1,3.1l-0.9,1.5c-0.5,0.8-1,1.7-1.5,2.6
		c-1.5,2.2-2.8,4.3-3.1,4.7c-0.1,0-0.5,0.1-1.1,0.1c-1.101,0-2.301-0.2-2.601-0.8c0,0-0.3-0.6-0.5-1.5c-0.6-3.7,1.2-6.1,2.9-7.5
		c1.5-1.1,3.8-2.5,5.899-2.6C205.294,42.6,205.836,42.63,206.1,43 M208.7,88.7c-0.5-2.301,0.8-4.301,0.899-4.301l0.101-0.099
		c1-7.401-4.8-14.601-5-15.001l-0.101-0.1c1.101-0.7,4.9-3.3,9.4-6.7c4.6,1.8,7.8,16.6,7.9,16.7c1,8.601-2.101,10.601-2.2,10.699
		L219.6,90c-2.3,2.6-4.5,3.2-5.899,3.2c-0.8,0-1.3-0.101-1.4-0.101C210.2,91.7,209,90.301,208.7,88.7"/>
	<polygon clip-path="url(#SVGID_14_)" points="195.758,67.344 196.729,67.035 197.897,69.094 200.209,69.832 202.229,69.076 
		202.407,70.113 199.866,70.801 198.498,70.593 197.462,70.011 196.552,69.032 196.177,68.318 	"/>
	<path clip-path="url(#SVGID_14_)" fill="#FFFFFF" d="M198.111,77.645l0.163-0.225l0.054,0.003h0.001
		c0.018,0,0.261,0.063,0.66-0.007c1.582-0.688,1.941-1.336,2.492-2.229l0.091-0.149c0.762-1.51,0.933-3.745,0.761-4.775
		l-0.071-0.416l-0.102,0.047c-1.059,0.489-2.078,0.747-2.867,0.722c-2.191-0.067-2.979-1.926-3.201-2.504l-0.049-0.116l-0.082-0.018
		c-0.021-0.078-0.053-0.19-0.074-0.266c-4.479,0.675-5.132,2.002-5.609,2.971c-0.279,0.565-0.774,1.222-0.975,1.478l0.168,0.062
		c0.132,0.051,0.286,0.087,0.475,0.109c0.633,0.072,1.262-0.344,1.267-0.349l0.559-0.472c0.464-0.368,0.754-0.565,1.013-0.557
		c0.121,0.003,0.208-0.005,0.279,0.121c0.212,0.355-0.022,0.992-0.661,1.792c-0.566,0.721-0.803,1.362-0.833,1.721
		c-0.038,0.442-0.148,0.966-0.572,2.207c-0.486,1.324-1.384,2.834-2.74,4.613c0.567-0.343,1.6-0.96,2.753-1.625
		c1.459-0.714,1.908-1.195,3.107-2.479l0.099-0.106c0.446-0.502,1.036-1.103,1.309-1.094l0.041,0.002l0.027,0.028
		c0.014,0.014,0.118,0.127,0.123,0.259c0.166,0.601,0.044,1.667-1.457,3.354c-0.035,0.038-0.057,0.062-0.065,0.074
		c-0.488,0.552-0.803,1.193-1.044,1.75c-0.072,0.166-0.127,0.415-0.154,0.558l0.058,0.002c0.027-0.125,0.091-0.355,0.219-0.547
		c0.264-0.294,0.185-0.234,0.951-0.771l0.514-0.379l0.11-0.062c0.058-0.038,0.403-0.275,0.439-0.294
		c0.005-0.003,0.128-0.083,0.134-0.086c0.25-0.157,0.163-0.102,0.502-0.299C196.843,79.163,197.542,78.433,198.111,77.645"/>
	<path clip-path="url(#SVGID_14_)" d="M202.431,70.247l-0.091-0.544l-0.222,0.1c-1.014,0.469-2.022,0.738-2.823,0.714
		c-2.032-0.062-2.927-1.723-3.213-2.473c0.003,0.01-0.123-0.442-0.123-0.442l-0.075,0.009c-4.424,0.666-5.162,1.944-5.695,3.028
		c-0.348,0.703-1.049,1.568-1.049,1.568l0.297,0.11c0.134,0.053,0.294,0.091,0.497,0.115c0.694,0.081,1.313-0.46,1.313-0.46
		l0.513-0.437c0.563-0.447,0.86-0.521,1.019-0.517c0.099,0.003,0.15,0.022,0.196,0.106c0.182,0.302-0.027,0.9-0.651,1.681
		c-0.556,0.707-0.819,1.364-0.854,1.775c-0.035,0.398-0.128,0.896-0.567,2.184c-0.545,1.484-1.597,3.152-3.054,5.008
		c0,0,1.454-0.888,3.212-1.901c1.51-0.739,1.965-1.251,3.228-2.603c0.519-0.585,1.034-1.07,1.233-1.062c0,0,0.098,0.103,0.095,0.201
		c0.402,1.4-1.426,3.245-1.504,3.356c-0.518,0.585-0.839,1.275-1.055,1.768c-0.112,0.259-0.183,0.695-0.183,0.695l0.262,0.008
		c0,0,0.048-0.341,0.218-0.593c0.218-0.244,0.72-0.751,1.69-1.404c-0.352,0.219-0.636,0.41-0.856,0.605
		c0.107-0.297,0.481-0.862,0.481-0.862s0.143-0.195,0.244-0.293c0.522-0.684,1.567-2.152,1.201-3.264
		c-0.091-0.303-0.188-0.395-0.388-0.412c-0.784-0.072-2.651,2.759-4.34,3.54c-0.812,0.376-1.599,0.881-2.008,1.168
		c0.94-1.272,1.579-2.553,2.014-3.64c0.438-1.289,0.558-1.884,0.568-2.284c0.057-0.467,0.192-0.785,0.85-1.575
		c0.727-0.878,0.951-1.672,0.764-2.077c-0.094-0.204-0.29-0.31-0.491-0.315c-0.258-0.009-0.576,0.121-1.044,0.441l-0.809,0.683
		c-0.121,0.118-0.562,0.302-0.991,0.289c-0.1-0.003-0.1-0.003-0.201-0.006c0.107-0.196,0.55-0.941,0.744-1.378
		c0.529-0.983,1.155-2.159,5.258-2.834l0.041,0.115c0.298,0.816,1.27,2.72,3.502,2.788c0.859,0.026,1.726-0.221,2.685-0.651
		c0.062,0.825,0.198,2.918-0.813,4.91c-0.421,0.661-0.706,1.408-2.423,2.192c-0.165,0.075,0.252-1.36,0.252-1.36l-0.349-0.011
		c-0.382,0.943-0.508,1.214-0.858,1.678c-0.093,0.128-1.245,1.461-2.366,2.127c-0.246,0.149-0.463,0.29-0.666,0.426
		c0.25-0.154,0.531-0.32,0.869-0.519c1.089-0.625,1.81-1.363,2.28-2.015c0.05-0.069,0.092-0.13,0.131-0.181
		c0,0,0.249,0.01,0.68-0.064c1.725-0.747,2.054-1.397,2.654-2.367C202.45,73.521,202.599,71.247,202.431,70.247"/>
</g>
</svg>
